G04 #@! TF.GenerationSoftware,KiCad,Pcbnew,5.0.2+dfsg1-1*
G04 #@! TF.CreationDate,2020-10-09T16:27:47-03:00*
G04 #@! TF.ProjectId,esp3d_anet,65737033-645f-4616-9e65-742e6b696361,rev?*
G04 #@! TF.SameCoordinates,Original*
G04 #@! TF.FileFunction,Copper,L1,Top*
G04 #@! TF.FilePolarity,Positive*
%FSLAX46Y46*%
G04 Gerber Fmt 4.6, Leading zero omitted, Abs format (unit mm)*
G04 Created by KiCad (PCBNEW 5.0.2+dfsg1-1) date vie 09 oct 2020 16:27:47 -03*
%MOMM*%
%LPD*%
G01*
G04 APERTURE LIST*
G04 #@! TA.AperFunction,ComponentPad*
%ADD10R,1.700000X1.700000*%
G04 #@! TD*
G04 #@! TA.AperFunction,ComponentPad*
%ADD11O,1.700000X1.700000*%
G04 #@! TD*
G04 #@! TA.AperFunction,ComponentPad*
%ADD12C,2.000000*%
G04 #@! TD*
G04 #@! TA.AperFunction,Conductor*
%ADD13C,0.250000*%
G04 #@! TD*
G04 #@! TA.AperFunction,Conductor*
%ADD14C,0.254000*%
G04 #@! TD*
G04 APERTURE END LIST*
D10*
G04 #@! TO.P,ESP-01,1*
G04 #@! TO.N,GND*
X80010000Y-58420000D03*
D11*
G04 #@! TO.P,ESP-01,2*
G04 #@! TO.N,ESP_TX*
X82550000Y-58420000D03*
G04 #@! TO.P,ESP-01,3*
G04 #@! TO.N,LED_OUT*
X80010000Y-55880000D03*
G04 #@! TO.P,ESP-01,4*
G04 #@! TO.N,3V3*
X82550000Y-55880000D03*
G04 #@! TO.P,ESP-01,5*
G04 #@! TO.N,BOOT_MODE*
X80010000Y-53340000D03*
G04 #@! TO.P,ESP-01,6*
G04 #@! TO.N,RESET*
X82550000Y-53340000D03*
G04 #@! TO.P,ESP-01,7*
G04 #@! TO.N,ESP_RX*
X80010000Y-50800000D03*
G04 #@! TO.P,ESP-01,8*
G04 #@! TO.N,3V3*
X82550000Y-50800000D03*
G04 #@! TD*
D10*
G04 #@! TO.P,3D PRINTER,1*
G04 #@! TO.N,ESP_TX*
X90170000Y-58420000D03*
D11*
G04 #@! TO.P,3D PRINTER,2*
G04 #@! TO.N,ESP_RX*
X87630000Y-58420000D03*
G04 #@! TO.P,3D PRINTER,3*
G04 #@! TO.N,3D_MISO*
X90170000Y-55880000D03*
G04 #@! TO.P,3D PRINTER,4*
G04 #@! TO.N,5V*
X87630000Y-55880000D03*
G04 #@! TO.P,3D PRINTER,5*
G04 #@! TO.N,3D_SCK*
X90170000Y-53340000D03*
G04 #@! TO.P,3D PRINTER,6*
G04 #@! TO.N,3D_MOSI*
X87630000Y-53340000D03*
G04 #@! TO.P,3D PRINTER,7*
G04 #@! TO.N,3D_RESET*
X90170000Y-50800000D03*
G04 #@! TO.P,3D PRINTER,8*
G04 #@! TO.N,GND*
X87630000Y-50800000D03*
G04 #@! TO.P,3D PRINTER,9*
G04 #@! TO.N,3D_FAN*
X90170000Y-48260000D03*
G04 #@! TO.P,3D PRINTER,10*
G04 #@! TO.N,3V3*
X87630000Y-48260000D03*
G04 #@! TD*
D10*
G04 #@! TO.P,LED STRIP,1*
G04 #@! TO.N,GND*
X90170000Y-73660000D03*
D11*
G04 #@! TO.P,LED STRIP,2*
G04 #@! TO.N,LED_OUT*
X87630000Y-73660000D03*
G04 #@! TO.P,LED STRIP,3*
G04 #@! TO.N,5V*
X85090000Y-73660000D03*
G04 #@! TD*
D10*
G04 #@! TO.P,1 - FAN & SPI,1*
G04 #@! TO.N,GND*
X57150000Y-73660000D03*
D11*
G04 #@! TO.P,1 - FAN & SPI,2*
G04 #@! TO.N,3V3*
X54610000Y-73660000D03*
G04 #@! TO.P,1 - FAN & SPI,3*
G04 #@! TO.N,5V*
X52070000Y-73660000D03*
G04 #@! TO.P,1 - FAN & SPI,4*
G04 #@! TO.N,3D_SCK*
X49530000Y-73660000D03*
G04 #@! TO.P,1 - FAN & SPI,5*
G04 #@! TO.N,3D_MISO*
X46990000Y-73660000D03*
G04 #@! TO.P,1 - FAN & SPI,6*
G04 #@! TO.N,3D_MOSI*
X44450000Y-73660000D03*
G04 #@! TO.P,1 - FAN & SPI,7*
G04 #@! TO.N,3D_RESET*
X41910000Y-73660000D03*
G04 #@! TO.P,1 - FAN & SPI,8*
G04 #@! TO.N,3D_FAN*
X39370000Y-73660000D03*
G04 #@! TD*
G04 #@! TO.P,2 - FAN & SPI,8*
G04 #@! TO.N,3D_FAN*
X62230000Y-73660000D03*
G04 #@! TO.P,2 - FAN & SPI,7*
G04 #@! TO.N,3D_RESET*
X64770000Y-73660000D03*
G04 #@! TO.P,2 - FAN & SPI,6*
G04 #@! TO.N,3D_MOSI*
X67310000Y-73660000D03*
G04 #@! TO.P,2 - FAN & SPI,5*
G04 #@! TO.N,3D_MISO*
X69850000Y-73660000D03*
G04 #@! TO.P,2 - FAN & SPI,4*
G04 #@! TO.N,3D_SCK*
X72390000Y-73660000D03*
G04 #@! TO.P,2 - FAN & SPI,3*
G04 #@! TO.N,5V*
X74930000Y-73660000D03*
G04 #@! TO.P,2 - FAN & SPI,2*
G04 #@! TO.N,3V3*
X77470000Y-73660000D03*
D10*
G04 #@! TO.P,2 - FAN & SPI,1*
G04 #@! TO.N,GND*
X80010000Y-73660000D03*
G04 #@! TD*
D12*
G04 #@! TO.P,UPLOAD MODE,3*
G04 #@! TO.N,N/C*
X78890000Y-64770000D03*
G04 #@! TO.P,UPLOAD MODE,2*
G04 #@! TO.N,BOOT_MODE*
X78890000Y-69270000D03*
G04 #@! TO.P,UPLOAD MODE,1*
G04 #@! TO.N,GND*
X72390000Y-64770000D03*
G04 #@! TO.P,UPLOAD MODE,4*
G04 #@! TO.N,N/C*
X72390000Y-69270000D03*
G04 #@! TD*
G04 #@! TO.P,RESET,4*
G04 #@! TO.N,N/C*
X83820000Y-69270000D03*
G04 #@! TO.P,RESET,1*
G04 #@! TO.N,GND*
X83820000Y-64770000D03*
G04 #@! TO.P,RESET,2*
G04 #@! TO.N,RESET*
X90320000Y-69270000D03*
G04 #@! TO.P,RESET,3*
G04 #@! TO.N,N/C*
X90320000Y-64770000D03*
G04 #@! TD*
D13*
G04 #@! TO.N,GND*
X58325300Y-73660000D02*
X60873300Y-76208000D01*
X60873300Y-76208000D02*
X76654000Y-76208000D01*
X76654000Y-76208000D02*
X78834700Y-74027300D01*
X78834700Y-74027300D02*
X78834700Y-73660000D01*
X80010000Y-58420000D02*
X81185300Y-58420000D01*
X81185300Y-58420000D02*
X81185300Y-58052600D01*
X81185300Y-58052600D02*
X81993200Y-57244700D01*
X81993200Y-57244700D02*
X82848000Y-57244700D01*
X82848000Y-57244700D02*
X86454700Y-53638000D01*
X86454700Y-53638000D02*
X86454700Y-52783200D01*
X86454700Y-52783200D02*
X87262600Y-51975300D01*
X87262600Y-51975300D02*
X87630000Y-51975300D01*
X80010000Y-58420000D02*
X78740000Y-58420000D01*
X78740000Y-58420000D02*
X72390000Y-64770000D01*
X87630000Y-50800000D02*
X87630000Y-51975300D01*
X80010000Y-73660000D02*
X78834700Y-73660000D01*
X57150000Y-73660000D02*
X58325300Y-73660000D01*
X90170000Y-73660000D02*
X88994700Y-73660000D01*
X80010000Y-73660000D02*
X81185300Y-73660000D01*
X81185300Y-73660000D02*
X82360600Y-74835300D01*
X82360600Y-74835300D02*
X88186800Y-74835300D01*
X88186800Y-74835300D02*
X88994700Y-74027400D01*
X88994700Y-74027400D02*
X88994700Y-73660000D01*
G04 #@! TO.N,3V3*
X55785300Y-73660000D02*
X55785300Y-72852000D01*
X55785300Y-72852000D02*
X56152700Y-72484600D01*
X56152700Y-72484600D02*
X58264700Y-72484600D01*
X58264700Y-72484600D02*
X61537800Y-75757700D01*
X61537800Y-75757700D02*
X74551200Y-75757700D01*
X74551200Y-75757700D02*
X76294700Y-74014200D01*
X76294700Y-74014200D02*
X76294700Y-73660000D01*
X82550000Y-50800000D02*
X83725300Y-50800000D01*
X83725300Y-50800000D02*
X86265300Y-48260000D01*
X86265300Y-48260000D02*
X87630000Y-48260000D01*
X54610000Y-73660000D02*
X55785300Y-73660000D01*
X77470000Y-73660000D02*
X76294700Y-73660000D01*
G04 #@! TO.N,RESET*
X82550000Y-53340000D02*
X82550000Y-52164700D01*
X90320000Y-69270000D02*
X91893300Y-67696700D01*
X91893300Y-67696700D02*
X91893300Y-48311100D01*
X91893300Y-48311100D02*
X90658100Y-47075900D01*
X90658100Y-47075900D02*
X84611800Y-47075900D01*
X84611800Y-47075900D02*
X81374700Y-50313000D01*
X81374700Y-50313000D02*
X81374700Y-51356800D01*
X81374700Y-51356800D02*
X82182600Y-52164700D01*
X82182600Y-52164700D02*
X82550000Y-52164700D01*
G04 #@! TO.N,3D_MISO*
X90170000Y-55880000D02*
X90170000Y-57055300D01*
X69850000Y-73660000D02*
X71025300Y-73660000D01*
X71025300Y-73660000D02*
X71025300Y-74027300D01*
X71025300Y-74027300D02*
X71852900Y-74854900D01*
X71852900Y-74854900D02*
X72861500Y-74854900D01*
X72861500Y-74854900D02*
X73660000Y-74056400D01*
X73660000Y-74056400D02*
X73660000Y-72558900D01*
X73660000Y-72558900D02*
X85788000Y-60430900D01*
X85788000Y-60430900D02*
X87313000Y-60430900D01*
X87313000Y-60430900D02*
X88994700Y-58749200D01*
X88994700Y-58749200D02*
X88994700Y-57422500D01*
X88994700Y-57422500D02*
X89361900Y-57055300D01*
X89361900Y-57055300D02*
X90170000Y-57055300D01*
G04 #@! TO.N,5V*
X52070000Y-73660000D02*
X53245300Y-73660000D01*
X74930000Y-73660000D02*
X73282700Y-75307300D01*
X73282700Y-75307300D02*
X62165400Y-75307300D01*
X62165400Y-75307300D02*
X58882000Y-72023900D01*
X58882000Y-72023900D02*
X54514100Y-72023900D01*
X54514100Y-72023900D02*
X53245300Y-73292700D01*
X53245300Y-73292700D02*
X53245300Y-73660000D01*
X87630000Y-55880000D02*
X88805300Y-55880000D01*
X85090000Y-73660000D02*
X85090000Y-72484700D01*
X85090000Y-72484700D02*
X86265300Y-71309400D01*
X86265300Y-71309400D02*
X86265300Y-65510800D01*
X86265300Y-65510800D02*
X91388100Y-60388000D01*
X91388100Y-60388000D02*
X91388100Y-55432200D01*
X91388100Y-55432200D02*
X90660600Y-54704700D01*
X90660600Y-54704700D02*
X89613200Y-54704700D01*
X89613200Y-54704700D02*
X88805300Y-55512600D01*
X88805300Y-55512600D02*
X88805300Y-55880000D01*
G04 #@! TO.N,3D_SCK*
X90170000Y-53340000D02*
X88994700Y-53340000D01*
X72390000Y-73660000D02*
X72390000Y-72484700D01*
X72390000Y-72484700D02*
X73051100Y-72484700D01*
X73051100Y-72484700D02*
X85507600Y-60028200D01*
X85507600Y-60028200D02*
X85507600Y-56336000D01*
X85507600Y-56336000D02*
X87328300Y-54515300D01*
X87328300Y-54515300D02*
X88186800Y-54515300D01*
X88186800Y-54515300D02*
X88994700Y-53707400D01*
X88994700Y-53707400D02*
X88994700Y-53340000D01*
G04 #@! TO.N,3D_MOSI*
X67310000Y-73660000D02*
X67310000Y-72462300D01*
X67310000Y-72462300D02*
X80125700Y-59646600D01*
X80125700Y-59646600D02*
X83021300Y-59646600D01*
X83021300Y-59646600D02*
X84428800Y-58239100D01*
X84428800Y-58239100D02*
X84428800Y-56541200D01*
X84428800Y-56541200D02*
X87630000Y-53340000D01*
G04 #@! TO.N,3D_FAN*
X62230000Y-71899700D02*
X62230000Y-73660000D01*
X88994700Y-48260000D02*
X88994700Y-48627400D01*
X88994700Y-48627400D02*
X88186800Y-49435300D01*
X88186800Y-49435300D02*
X87235200Y-49435300D01*
X87235200Y-49435300D02*
X84119400Y-52551100D01*
X84119400Y-52551100D02*
X84119400Y-53433200D01*
X84119400Y-53433200D02*
X82942600Y-54610000D01*
X82942600Y-54610000D02*
X79519700Y-54610000D01*
X79519700Y-54610000D02*
X62230000Y-71899700D01*
X62230000Y-71899700D02*
X61903800Y-71573500D01*
X61903800Y-71573500D02*
X42264500Y-71573500D01*
X42264500Y-71573500D02*
X40545300Y-73292700D01*
X40545300Y-73292700D02*
X40545300Y-73660000D01*
X39370000Y-73660000D02*
X40545300Y-73660000D01*
X90170000Y-48260000D02*
X88994700Y-48260000D01*
G04 #@! TD*
D14*
G04 #@! TO.N,GND*
G36*
X91899967Y-45198552D02*
X92331029Y-45369222D01*
X92706108Y-45641732D01*
X93001633Y-45998960D01*
X93199032Y-46418454D01*
X93292019Y-46905913D01*
X93295001Y-47000792D01*
X93295000Y-83776907D01*
X93231448Y-84279967D01*
X93060777Y-84711031D01*
X92788267Y-85086109D01*
X92431040Y-85381633D01*
X92011546Y-85579032D01*
X91524087Y-85672019D01*
X91429240Y-85675000D01*
X38143093Y-85675000D01*
X37640033Y-85611448D01*
X37208969Y-85440777D01*
X36833891Y-85168267D01*
X36538367Y-84811040D01*
X36340968Y-84391546D01*
X36247981Y-83904087D01*
X36245000Y-83809240D01*
X36245000Y-49573101D01*
X36308552Y-49070033D01*
X36479222Y-48638971D01*
X36751732Y-48263892D01*
X37108960Y-47968367D01*
X37528454Y-47770968D01*
X38015913Y-47677981D01*
X38110760Y-47675000D01*
X82617462Y-47675000D01*
X82646953Y-47669134D01*
X82830234Y-47653099D01*
X82916680Y-47629936D01*
X82997152Y-47615747D01*
X80962472Y-49650427D01*
X80589418Y-49401161D01*
X80156256Y-49315000D01*
X79863744Y-49315000D01*
X79430582Y-49401161D01*
X78939375Y-49729375D01*
X78611161Y-50220582D01*
X78495908Y-50800000D01*
X78611161Y-51379418D01*
X78939375Y-51870625D01*
X79237761Y-52070000D01*
X78939375Y-52269375D01*
X78611161Y-52760582D01*
X78495908Y-53340000D01*
X78611161Y-53919418D01*
X78821174Y-54233724D01*
X62197806Y-70857093D01*
X61978652Y-70813500D01*
X61978647Y-70813500D01*
X61903800Y-70798612D01*
X61828953Y-70813500D01*
X42339347Y-70813500D01*
X42264500Y-70798612D01*
X42189653Y-70813500D01*
X42189648Y-70813500D01*
X41967963Y-70857596D01*
X41716571Y-71025571D01*
X41674171Y-71089027D01*
X40280689Y-72482509D01*
X39949418Y-72261161D01*
X39516256Y-72175000D01*
X39223744Y-72175000D01*
X38790582Y-72261161D01*
X38299375Y-72589375D01*
X37971161Y-73080582D01*
X37855908Y-73660000D01*
X37971161Y-74239418D01*
X38299375Y-74730625D01*
X38790582Y-75058839D01*
X39223744Y-75145000D01*
X39516256Y-75145000D01*
X39949418Y-75058839D01*
X40440625Y-74730625D01*
X40640000Y-74432239D01*
X40839375Y-74730625D01*
X41330582Y-75058839D01*
X41763744Y-75145000D01*
X42056256Y-75145000D01*
X42489418Y-75058839D01*
X42980625Y-74730625D01*
X43180000Y-74432239D01*
X43379375Y-74730625D01*
X43870582Y-75058839D01*
X44303744Y-75145000D01*
X44596256Y-75145000D01*
X45029418Y-75058839D01*
X45520625Y-74730625D01*
X45720000Y-74432239D01*
X45919375Y-74730625D01*
X46410582Y-75058839D01*
X46843744Y-75145000D01*
X47136256Y-75145000D01*
X47569418Y-75058839D01*
X48060625Y-74730625D01*
X48260000Y-74432239D01*
X48459375Y-74730625D01*
X48950582Y-75058839D01*
X49383744Y-75145000D01*
X49676256Y-75145000D01*
X50109418Y-75058839D01*
X50600625Y-74730625D01*
X50800000Y-74432239D01*
X50999375Y-74730625D01*
X51490582Y-75058839D01*
X51923744Y-75145000D01*
X52216256Y-75145000D01*
X52649418Y-75058839D01*
X53140625Y-74730625D01*
X53340000Y-74432239D01*
X53539375Y-74730625D01*
X54030582Y-75058839D01*
X54463744Y-75145000D01*
X54756256Y-75145000D01*
X55189418Y-75058839D01*
X55680625Y-74730625D01*
X55695096Y-74708967D01*
X55761673Y-74869698D01*
X55940301Y-75048327D01*
X56173690Y-75145000D01*
X56864250Y-75145000D01*
X57023000Y-74986250D01*
X57023000Y-73787000D01*
X57003000Y-73787000D01*
X57003000Y-73533000D01*
X57023000Y-73533000D01*
X57023000Y-73513000D01*
X57277000Y-73513000D01*
X57277000Y-73533000D01*
X57297000Y-73533000D01*
X57297000Y-73787000D01*
X57277000Y-73787000D01*
X57277000Y-74986250D01*
X57435750Y-75145000D01*
X58126310Y-75145000D01*
X58359699Y-75048327D01*
X58538327Y-74869698D01*
X58635000Y-74636309D01*
X58635000Y-73945750D01*
X58476252Y-73787002D01*
X58492301Y-73787002D01*
X60947473Y-76242176D01*
X60989871Y-76305629D01*
X61053324Y-76348027D01*
X61053326Y-76348029D01*
X61178702Y-76431802D01*
X61241263Y-76473604D01*
X61462948Y-76517700D01*
X61462952Y-76517700D01*
X61537799Y-76532588D01*
X61612646Y-76517700D01*
X74476353Y-76517700D01*
X74551200Y-76532588D01*
X74626047Y-76517700D01*
X74626052Y-76517700D01*
X74847737Y-76473604D01*
X75099129Y-76305629D01*
X75141531Y-76242170D01*
X76551459Y-74832244D01*
X76890582Y-75058839D01*
X77323744Y-75145000D01*
X77616256Y-75145000D01*
X78049418Y-75058839D01*
X78540625Y-74730625D01*
X78555096Y-74708967D01*
X78621673Y-74869698D01*
X78800301Y-75048327D01*
X79033690Y-75145000D01*
X79724250Y-75145000D01*
X79883000Y-74986250D01*
X79883000Y-73787000D01*
X80137000Y-73787000D01*
X80137000Y-74986250D01*
X80295750Y-75145000D01*
X80986310Y-75145000D01*
X81219699Y-75048327D01*
X81398327Y-74869698D01*
X81495000Y-74636309D01*
X81495000Y-73945750D01*
X81336250Y-73787000D01*
X80137000Y-73787000D01*
X79883000Y-73787000D01*
X79863000Y-73787000D01*
X79863000Y-73533000D01*
X79883000Y-73533000D01*
X79883000Y-72333750D01*
X80137000Y-72333750D01*
X80137000Y-73533000D01*
X81336250Y-73533000D01*
X81495000Y-73374250D01*
X81495000Y-72683691D01*
X81398327Y-72450302D01*
X81219699Y-72271673D01*
X80986310Y-72175000D01*
X80295750Y-72175000D01*
X80137000Y-72333750D01*
X79883000Y-72333750D01*
X79724250Y-72175000D01*
X79033690Y-72175000D01*
X78800301Y-72271673D01*
X78621673Y-72450302D01*
X78555096Y-72611033D01*
X78540625Y-72589375D01*
X78049418Y-72261161D01*
X77616256Y-72175000D01*
X77323744Y-72175000D01*
X76890582Y-72261161D01*
X76399375Y-72589375D01*
X76200000Y-72887761D01*
X76000625Y-72589375D01*
X75509418Y-72261161D01*
X75111659Y-72182042D01*
X77384892Y-69908809D01*
X77503914Y-70196153D01*
X77963847Y-70656086D01*
X78564778Y-70905000D01*
X79215222Y-70905000D01*
X79816153Y-70656086D01*
X80276086Y-70196153D01*
X80525000Y-69595222D01*
X80525000Y-68944778D01*
X82185000Y-68944778D01*
X82185000Y-69595222D01*
X82433914Y-70196153D01*
X82893847Y-70656086D01*
X83494778Y-70905000D01*
X84145222Y-70905000D01*
X84746153Y-70656086D01*
X85206086Y-70196153D01*
X85455000Y-69595222D01*
X85455000Y-68944778D01*
X85206086Y-68343847D01*
X84746153Y-67883914D01*
X84145222Y-67635000D01*
X83494778Y-67635000D01*
X82893847Y-67883914D01*
X82433914Y-68343847D01*
X82185000Y-68944778D01*
X80525000Y-68944778D01*
X80276086Y-68343847D01*
X79816153Y-67883914D01*
X79528809Y-67764892D01*
X81371169Y-65922532D01*
X82847073Y-65922532D01*
X82945736Y-66189387D01*
X83555461Y-66415908D01*
X84205460Y-66391856D01*
X84694264Y-66189387D01*
X84792927Y-65922532D01*
X83820000Y-64949605D01*
X82847073Y-65922532D01*
X81371169Y-65922532D01*
X82196007Y-65097695D01*
X82198144Y-65155460D01*
X82400613Y-65644264D01*
X82667468Y-65742927D01*
X83640395Y-64770000D01*
X83999605Y-64770000D01*
X84972532Y-65742927D01*
X85239387Y-65644264D01*
X85465908Y-65034539D01*
X85441856Y-64384540D01*
X85239387Y-63895736D01*
X84972532Y-63797073D01*
X83999605Y-64770000D01*
X83640395Y-64770000D01*
X83626253Y-64755858D01*
X83805858Y-64576253D01*
X83820000Y-64590395D01*
X84792927Y-63617468D01*
X84694264Y-63350613D01*
X84146566Y-63147136D01*
X86102802Y-61190900D01*
X87238153Y-61190900D01*
X87313000Y-61205788D01*
X87387847Y-61190900D01*
X87387852Y-61190900D01*
X87609537Y-61146804D01*
X87860929Y-60978829D01*
X87903331Y-60915370D01*
X88999287Y-59819414D01*
X89072235Y-59868157D01*
X89320000Y-59917440D01*
X90628100Y-59917440D01*
X90628100Y-60073198D01*
X85780828Y-64920471D01*
X85717372Y-64962871D01*
X85674972Y-65026327D01*
X85674971Y-65026328D01*
X85549397Y-65214263D01*
X85490412Y-65510800D01*
X85505301Y-65585652D01*
X85505300Y-70994598D01*
X84605528Y-71894371D01*
X84542072Y-71936771D01*
X84499672Y-72000227D01*
X84499671Y-72000228D01*
X84374097Y-72188163D01*
X84336430Y-72377525D01*
X84019375Y-72589375D01*
X83691161Y-73080582D01*
X83575908Y-73660000D01*
X83691161Y-74239418D01*
X84019375Y-74730625D01*
X84510582Y-75058839D01*
X84943744Y-75145000D01*
X85236256Y-75145000D01*
X85669418Y-75058839D01*
X86160625Y-74730625D01*
X86360000Y-74432239D01*
X86559375Y-74730625D01*
X87050582Y-75058839D01*
X87483744Y-75145000D01*
X87776256Y-75145000D01*
X88209418Y-75058839D01*
X88700625Y-74730625D01*
X88715096Y-74708967D01*
X88781673Y-74869698D01*
X88960301Y-75048327D01*
X89193690Y-75145000D01*
X89884250Y-75145000D01*
X90043000Y-74986250D01*
X90043000Y-73787000D01*
X90297000Y-73787000D01*
X90297000Y-74986250D01*
X90455750Y-75145000D01*
X91146310Y-75145000D01*
X91379699Y-75048327D01*
X91558327Y-74869698D01*
X91655000Y-74636309D01*
X91655000Y-73945750D01*
X91496250Y-73787000D01*
X90297000Y-73787000D01*
X90043000Y-73787000D01*
X90023000Y-73787000D01*
X90023000Y-73533000D01*
X90043000Y-73533000D01*
X90043000Y-72333750D01*
X90297000Y-72333750D01*
X90297000Y-73533000D01*
X91496250Y-73533000D01*
X91655000Y-73374250D01*
X91655000Y-72683691D01*
X91558327Y-72450302D01*
X91379699Y-72271673D01*
X91146310Y-72175000D01*
X90455750Y-72175000D01*
X90297000Y-72333750D01*
X90043000Y-72333750D01*
X89884250Y-72175000D01*
X89193690Y-72175000D01*
X88960301Y-72271673D01*
X88781673Y-72450302D01*
X88715096Y-72611033D01*
X88700625Y-72589375D01*
X88209418Y-72261161D01*
X87776256Y-72175000D01*
X87483744Y-72175000D01*
X87050582Y-72261161D01*
X86559375Y-72589375D01*
X86360000Y-72887761D01*
X86160625Y-72589375D01*
X86100380Y-72549121D01*
X86749773Y-71899729D01*
X86813229Y-71857329D01*
X86981204Y-71605937D01*
X87025300Y-71384252D01*
X87025300Y-71384248D01*
X87040188Y-71309401D01*
X87025300Y-71234554D01*
X87025300Y-65825601D01*
X88882196Y-63968706D01*
X88685000Y-64444778D01*
X88685000Y-65095222D01*
X88933914Y-65696153D01*
X89393847Y-66156086D01*
X89994778Y-66405000D01*
X90645222Y-66405000D01*
X91133300Y-66202831D01*
X91133300Y-67381898D01*
X90811375Y-67703823D01*
X90645222Y-67635000D01*
X89994778Y-67635000D01*
X89393847Y-67883914D01*
X88933914Y-68343847D01*
X88685000Y-68944778D01*
X88685000Y-69595222D01*
X88933914Y-70196153D01*
X89393847Y-70656086D01*
X89994778Y-70905000D01*
X90645222Y-70905000D01*
X91246153Y-70656086D01*
X91706086Y-70196153D01*
X91955000Y-69595222D01*
X91955000Y-68944778D01*
X91886177Y-68778625D01*
X92377773Y-68287029D01*
X92441229Y-68244629D01*
X92609204Y-67993237D01*
X92653300Y-67771552D01*
X92653300Y-67771548D01*
X92668188Y-67696701D01*
X92653300Y-67621854D01*
X92653300Y-48385948D01*
X92668188Y-48311100D01*
X92653300Y-48236252D01*
X92653300Y-48236248D01*
X92609204Y-48014563D01*
X92441229Y-47763171D01*
X92377773Y-47720771D01*
X91248431Y-46591430D01*
X91206029Y-46527971D01*
X90954637Y-46359996D01*
X90732952Y-46315900D01*
X90732947Y-46315900D01*
X90658100Y-46301012D01*
X90583253Y-46315900D01*
X84686648Y-46315900D01*
X84611800Y-46301012D01*
X84536952Y-46315900D01*
X84536948Y-46315900D01*
X84392010Y-46344730D01*
X84418003Y-46273316D01*
X84418003Y-46273314D01*
X84469889Y-45979051D01*
X84721988Y-45597665D01*
X85111457Y-45237834D01*
X85281255Y-45135000D01*
X91396899Y-45135000D01*
X91899967Y-45198552D01*
X91899967Y-45198552D01*
G37*
X91899967Y-45198552D02*
X92331029Y-45369222D01*
X92706108Y-45641732D01*
X93001633Y-45998960D01*
X93199032Y-46418454D01*
X93292019Y-46905913D01*
X93295001Y-47000792D01*
X93295000Y-83776907D01*
X93231448Y-84279967D01*
X93060777Y-84711031D01*
X92788267Y-85086109D01*
X92431040Y-85381633D01*
X92011546Y-85579032D01*
X91524087Y-85672019D01*
X91429240Y-85675000D01*
X38143093Y-85675000D01*
X37640033Y-85611448D01*
X37208969Y-85440777D01*
X36833891Y-85168267D01*
X36538367Y-84811040D01*
X36340968Y-84391546D01*
X36247981Y-83904087D01*
X36245000Y-83809240D01*
X36245000Y-49573101D01*
X36308552Y-49070033D01*
X36479222Y-48638971D01*
X36751732Y-48263892D01*
X37108960Y-47968367D01*
X37528454Y-47770968D01*
X38015913Y-47677981D01*
X38110760Y-47675000D01*
X82617462Y-47675000D01*
X82646953Y-47669134D01*
X82830234Y-47653099D01*
X82916680Y-47629936D01*
X82997152Y-47615747D01*
X80962472Y-49650427D01*
X80589418Y-49401161D01*
X80156256Y-49315000D01*
X79863744Y-49315000D01*
X79430582Y-49401161D01*
X78939375Y-49729375D01*
X78611161Y-50220582D01*
X78495908Y-50800000D01*
X78611161Y-51379418D01*
X78939375Y-51870625D01*
X79237761Y-52070000D01*
X78939375Y-52269375D01*
X78611161Y-52760582D01*
X78495908Y-53340000D01*
X78611161Y-53919418D01*
X78821174Y-54233724D01*
X62197806Y-70857093D01*
X61978652Y-70813500D01*
X61978647Y-70813500D01*
X61903800Y-70798612D01*
X61828953Y-70813500D01*
X42339347Y-70813500D01*
X42264500Y-70798612D01*
X42189653Y-70813500D01*
X42189648Y-70813500D01*
X41967963Y-70857596D01*
X41716571Y-71025571D01*
X41674171Y-71089027D01*
X40280689Y-72482509D01*
X39949418Y-72261161D01*
X39516256Y-72175000D01*
X39223744Y-72175000D01*
X38790582Y-72261161D01*
X38299375Y-72589375D01*
X37971161Y-73080582D01*
X37855908Y-73660000D01*
X37971161Y-74239418D01*
X38299375Y-74730625D01*
X38790582Y-75058839D01*
X39223744Y-75145000D01*
X39516256Y-75145000D01*
X39949418Y-75058839D01*
X40440625Y-74730625D01*
X40640000Y-74432239D01*
X40839375Y-74730625D01*
X41330582Y-75058839D01*
X41763744Y-75145000D01*
X42056256Y-75145000D01*
X42489418Y-75058839D01*
X42980625Y-74730625D01*
X43180000Y-74432239D01*
X43379375Y-74730625D01*
X43870582Y-75058839D01*
X44303744Y-75145000D01*
X44596256Y-75145000D01*
X45029418Y-75058839D01*
X45520625Y-74730625D01*
X45720000Y-74432239D01*
X45919375Y-74730625D01*
X46410582Y-75058839D01*
X46843744Y-75145000D01*
X47136256Y-75145000D01*
X47569418Y-75058839D01*
X48060625Y-74730625D01*
X48260000Y-74432239D01*
X48459375Y-74730625D01*
X48950582Y-75058839D01*
X49383744Y-75145000D01*
X49676256Y-75145000D01*
X50109418Y-75058839D01*
X50600625Y-74730625D01*
X50800000Y-74432239D01*
X50999375Y-74730625D01*
X51490582Y-75058839D01*
X51923744Y-75145000D01*
X52216256Y-75145000D01*
X52649418Y-75058839D01*
X53140625Y-74730625D01*
X53340000Y-74432239D01*
X53539375Y-74730625D01*
X54030582Y-75058839D01*
X54463744Y-75145000D01*
X54756256Y-75145000D01*
X55189418Y-75058839D01*
X55680625Y-74730625D01*
X55695096Y-74708967D01*
X55761673Y-74869698D01*
X55940301Y-75048327D01*
X56173690Y-75145000D01*
X56864250Y-75145000D01*
X57023000Y-74986250D01*
X57023000Y-73787000D01*
X57003000Y-73787000D01*
X57003000Y-73533000D01*
X57023000Y-73533000D01*
X57023000Y-73513000D01*
X57277000Y-73513000D01*
X57277000Y-73533000D01*
X57297000Y-73533000D01*
X57297000Y-73787000D01*
X57277000Y-73787000D01*
X57277000Y-74986250D01*
X57435750Y-75145000D01*
X58126310Y-75145000D01*
X58359699Y-75048327D01*
X58538327Y-74869698D01*
X58635000Y-74636309D01*
X58635000Y-73945750D01*
X58476252Y-73787002D01*
X58492301Y-73787002D01*
X60947473Y-76242176D01*
X60989871Y-76305629D01*
X61053324Y-76348027D01*
X61053326Y-76348029D01*
X61178702Y-76431802D01*
X61241263Y-76473604D01*
X61462948Y-76517700D01*
X61462952Y-76517700D01*
X61537799Y-76532588D01*
X61612646Y-76517700D01*
X74476353Y-76517700D01*
X74551200Y-76532588D01*
X74626047Y-76517700D01*
X74626052Y-76517700D01*
X74847737Y-76473604D01*
X75099129Y-76305629D01*
X75141531Y-76242170D01*
X76551459Y-74832244D01*
X76890582Y-75058839D01*
X77323744Y-75145000D01*
X77616256Y-75145000D01*
X78049418Y-75058839D01*
X78540625Y-74730625D01*
X78555096Y-74708967D01*
X78621673Y-74869698D01*
X78800301Y-75048327D01*
X79033690Y-75145000D01*
X79724250Y-75145000D01*
X79883000Y-74986250D01*
X79883000Y-73787000D01*
X80137000Y-73787000D01*
X80137000Y-74986250D01*
X80295750Y-75145000D01*
X80986310Y-75145000D01*
X81219699Y-75048327D01*
X81398327Y-74869698D01*
X81495000Y-74636309D01*
X81495000Y-73945750D01*
X81336250Y-73787000D01*
X80137000Y-73787000D01*
X79883000Y-73787000D01*
X79863000Y-73787000D01*
X79863000Y-73533000D01*
X79883000Y-73533000D01*
X79883000Y-72333750D01*
X80137000Y-72333750D01*
X80137000Y-73533000D01*
X81336250Y-73533000D01*
X81495000Y-73374250D01*
X81495000Y-72683691D01*
X81398327Y-72450302D01*
X81219699Y-72271673D01*
X80986310Y-72175000D01*
X80295750Y-72175000D01*
X80137000Y-72333750D01*
X79883000Y-72333750D01*
X79724250Y-72175000D01*
X79033690Y-72175000D01*
X78800301Y-72271673D01*
X78621673Y-72450302D01*
X78555096Y-72611033D01*
X78540625Y-72589375D01*
X78049418Y-72261161D01*
X77616256Y-72175000D01*
X77323744Y-72175000D01*
X76890582Y-72261161D01*
X76399375Y-72589375D01*
X76200000Y-72887761D01*
X76000625Y-72589375D01*
X75509418Y-72261161D01*
X75111659Y-72182042D01*
X77384892Y-69908809D01*
X77503914Y-70196153D01*
X77963847Y-70656086D01*
X78564778Y-70905000D01*
X79215222Y-70905000D01*
X79816153Y-70656086D01*
X80276086Y-70196153D01*
X80525000Y-69595222D01*
X80525000Y-68944778D01*
X82185000Y-68944778D01*
X82185000Y-69595222D01*
X82433914Y-70196153D01*
X82893847Y-70656086D01*
X83494778Y-70905000D01*
X84145222Y-70905000D01*
X84746153Y-70656086D01*
X85206086Y-70196153D01*
X85455000Y-69595222D01*
X85455000Y-68944778D01*
X85206086Y-68343847D01*
X84746153Y-67883914D01*
X84145222Y-67635000D01*
X83494778Y-67635000D01*
X82893847Y-67883914D01*
X82433914Y-68343847D01*
X82185000Y-68944778D01*
X80525000Y-68944778D01*
X80276086Y-68343847D01*
X79816153Y-67883914D01*
X79528809Y-67764892D01*
X81371169Y-65922532D01*
X82847073Y-65922532D01*
X82945736Y-66189387D01*
X83555461Y-66415908D01*
X84205460Y-66391856D01*
X84694264Y-66189387D01*
X84792927Y-65922532D01*
X83820000Y-64949605D01*
X82847073Y-65922532D01*
X81371169Y-65922532D01*
X82196007Y-65097695D01*
X82198144Y-65155460D01*
X82400613Y-65644264D01*
X82667468Y-65742927D01*
X83640395Y-64770000D01*
X83999605Y-64770000D01*
X84972532Y-65742927D01*
X85239387Y-65644264D01*
X85465908Y-65034539D01*
X85441856Y-64384540D01*
X85239387Y-63895736D01*
X84972532Y-63797073D01*
X83999605Y-64770000D01*
X83640395Y-64770000D01*
X83626253Y-64755858D01*
X83805858Y-64576253D01*
X83820000Y-64590395D01*
X84792927Y-63617468D01*
X84694264Y-63350613D01*
X84146566Y-63147136D01*
X86102802Y-61190900D01*
X87238153Y-61190900D01*
X87313000Y-61205788D01*
X87387847Y-61190900D01*
X87387852Y-61190900D01*
X87609537Y-61146804D01*
X87860929Y-60978829D01*
X87903331Y-60915370D01*
X88999287Y-59819414D01*
X89072235Y-59868157D01*
X89320000Y-59917440D01*
X90628100Y-59917440D01*
X90628100Y-60073198D01*
X85780828Y-64920471D01*
X85717372Y-64962871D01*
X85674972Y-65026327D01*
X85674971Y-65026328D01*
X85549397Y-65214263D01*
X85490412Y-65510800D01*
X85505301Y-65585652D01*
X85505300Y-70994598D01*
X84605528Y-71894371D01*
X84542072Y-71936771D01*
X84499672Y-72000227D01*
X84499671Y-72000228D01*
X84374097Y-72188163D01*
X84336430Y-72377525D01*
X84019375Y-72589375D01*
X83691161Y-73080582D01*
X83575908Y-73660000D01*
X83691161Y-74239418D01*
X84019375Y-74730625D01*
X84510582Y-75058839D01*
X84943744Y-75145000D01*
X85236256Y-75145000D01*
X85669418Y-75058839D01*
X86160625Y-74730625D01*
X86360000Y-74432239D01*
X86559375Y-74730625D01*
X87050582Y-75058839D01*
X87483744Y-75145000D01*
X87776256Y-75145000D01*
X88209418Y-75058839D01*
X88700625Y-74730625D01*
X88715096Y-74708967D01*
X88781673Y-74869698D01*
X88960301Y-75048327D01*
X89193690Y-75145000D01*
X89884250Y-75145000D01*
X90043000Y-74986250D01*
X90043000Y-73787000D01*
X90297000Y-73787000D01*
X90297000Y-74986250D01*
X90455750Y-75145000D01*
X91146310Y-75145000D01*
X91379699Y-75048327D01*
X91558327Y-74869698D01*
X91655000Y-74636309D01*
X91655000Y-73945750D01*
X91496250Y-73787000D01*
X90297000Y-73787000D01*
X90043000Y-73787000D01*
X90023000Y-73787000D01*
X90023000Y-73533000D01*
X90043000Y-73533000D01*
X90043000Y-72333750D01*
X90297000Y-72333750D01*
X90297000Y-73533000D01*
X91496250Y-73533000D01*
X91655000Y-73374250D01*
X91655000Y-72683691D01*
X91558327Y-72450302D01*
X91379699Y-72271673D01*
X91146310Y-72175000D01*
X90455750Y-72175000D01*
X90297000Y-72333750D01*
X90043000Y-72333750D01*
X89884250Y-72175000D01*
X89193690Y-72175000D01*
X88960301Y-72271673D01*
X88781673Y-72450302D01*
X88715096Y-72611033D01*
X88700625Y-72589375D01*
X88209418Y-72261161D01*
X87776256Y-72175000D01*
X87483744Y-72175000D01*
X87050582Y-72261161D01*
X86559375Y-72589375D01*
X86360000Y-72887761D01*
X86160625Y-72589375D01*
X86100380Y-72549121D01*
X86749773Y-71899729D01*
X86813229Y-71857329D01*
X86981204Y-71605937D01*
X87025300Y-71384252D01*
X87025300Y-71384248D01*
X87040188Y-71309401D01*
X87025300Y-71234554D01*
X87025300Y-65825601D01*
X88882196Y-63968706D01*
X88685000Y-64444778D01*
X88685000Y-65095222D01*
X88933914Y-65696153D01*
X89393847Y-66156086D01*
X89994778Y-66405000D01*
X90645222Y-66405000D01*
X91133300Y-66202831D01*
X91133300Y-67381898D01*
X90811375Y-67703823D01*
X90645222Y-67635000D01*
X89994778Y-67635000D01*
X89393847Y-67883914D01*
X88933914Y-68343847D01*
X88685000Y-68944778D01*
X88685000Y-69595222D01*
X88933914Y-70196153D01*
X89393847Y-70656086D01*
X89994778Y-70905000D01*
X90645222Y-70905000D01*
X91246153Y-70656086D01*
X91706086Y-70196153D01*
X91955000Y-69595222D01*
X91955000Y-68944778D01*
X91886177Y-68778625D01*
X92377773Y-68287029D01*
X92441229Y-68244629D01*
X92609204Y-67993237D01*
X92653300Y-67771552D01*
X92653300Y-67771548D01*
X92668188Y-67696701D01*
X92653300Y-67621854D01*
X92653300Y-48385948D01*
X92668188Y-48311100D01*
X92653300Y-48236252D01*
X92653300Y-48236248D01*
X92609204Y-48014563D01*
X92441229Y-47763171D01*
X92377773Y-47720771D01*
X91248431Y-46591430D01*
X91206029Y-46527971D01*
X90954637Y-46359996D01*
X90732952Y-46315900D01*
X90732947Y-46315900D01*
X90658100Y-46301012D01*
X90583253Y-46315900D01*
X84686648Y-46315900D01*
X84611800Y-46301012D01*
X84536952Y-46315900D01*
X84536948Y-46315900D01*
X84392010Y-46344730D01*
X84418003Y-46273316D01*
X84418003Y-46273314D01*
X84469889Y-45979051D01*
X84721988Y-45597665D01*
X85111457Y-45237834D01*
X85281255Y-45135000D01*
X91396899Y-45135000D01*
X91899967Y-45198552D01*
G36*
X78939375Y-56950625D02*
X78961033Y-56965096D01*
X78800302Y-57031673D01*
X78621673Y-57210301D01*
X78525000Y-57443690D01*
X78525000Y-58134250D01*
X78683750Y-58293000D01*
X79883000Y-58293000D01*
X79883000Y-58273000D01*
X80137000Y-58273000D01*
X80137000Y-58293000D01*
X80157000Y-58293000D01*
X80157000Y-58547000D01*
X80137000Y-58547000D01*
X80137000Y-58567000D01*
X79883000Y-58567000D01*
X79883000Y-58547000D01*
X78683750Y-58547000D01*
X78525000Y-58705750D01*
X78525000Y-59396310D01*
X78621673Y-59629699D01*
X78800302Y-59808327D01*
X78863142Y-59834356D01*
X74022600Y-64674898D01*
X74011856Y-64384540D01*
X73809387Y-63895736D01*
X73542532Y-63797073D01*
X72569605Y-64770000D01*
X72583748Y-64784143D01*
X72404143Y-64963748D01*
X72390000Y-64949605D01*
X71417073Y-65922532D01*
X71515736Y-66189387D01*
X72125461Y-66415908D01*
X72287590Y-66409909D01*
X66825528Y-71871971D01*
X66762072Y-71914371D01*
X66719672Y-71977827D01*
X66719671Y-71977828D01*
X66594097Y-72165763D01*
X66551292Y-72380959D01*
X66239375Y-72589375D01*
X66040000Y-72887761D01*
X65840625Y-72589375D01*
X65349418Y-72261161D01*
X64916256Y-72175000D01*
X64623744Y-72175000D01*
X64190582Y-72261161D01*
X63699375Y-72589375D01*
X63500000Y-72887761D01*
X63300625Y-72589375D01*
X62990000Y-72381822D01*
X62990000Y-72214501D01*
X70770723Y-64433778D01*
X70744092Y-64505461D01*
X70768144Y-65155460D01*
X70970613Y-65644264D01*
X71237468Y-65742927D01*
X72210395Y-64770000D01*
X72196253Y-64755858D01*
X72375858Y-64576253D01*
X72390000Y-64590395D01*
X73362927Y-63617468D01*
X73264264Y-63350613D01*
X72654539Y-63124092D01*
X72058349Y-63146153D01*
X78664803Y-56539699D01*
X78939375Y-56950625D01*
X78939375Y-56950625D01*
G37*
X78939375Y-56950625D02*
X78961033Y-56965096D01*
X78800302Y-57031673D01*
X78621673Y-57210301D01*
X78525000Y-57443690D01*
X78525000Y-58134250D01*
X78683750Y-58293000D01*
X79883000Y-58293000D01*
X79883000Y-58273000D01*
X80137000Y-58273000D01*
X80137000Y-58293000D01*
X80157000Y-58293000D01*
X80157000Y-58547000D01*
X80137000Y-58547000D01*
X80137000Y-58567000D01*
X79883000Y-58567000D01*
X79883000Y-58547000D01*
X78683750Y-58547000D01*
X78525000Y-58705750D01*
X78525000Y-59396310D01*
X78621673Y-59629699D01*
X78800302Y-59808327D01*
X78863142Y-59834356D01*
X74022600Y-64674898D01*
X74011856Y-64384540D01*
X73809387Y-63895736D01*
X73542532Y-63797073D01*
X72569605Y-64770000D01*
X72583748Y-64784143D01*
X72404143Y-64963748D01*
X72390000Y-64949605D01*
X71417073Y-65922532D01*
X71515736Y-66189387D01*
X72125461Y-66415908D01*
X72287590Y-66409909D01*
X66825528Y-71871971D01*
X66762072Y-71914371D01*
X66719672Y-71977827D01*
X66719671Y-71977828D01*
X66594097Y-72165763D01*
X66551292Y-72380959D01*
X66239375Y-72589375D01*
X66040000Y-72887761D01*
X65840625Y-72589375D01*
X65349418Y-72261161D01*
X64916256Y-72175000D01*
X64623744Y-72175000D01*
X64190582Y-72261161D01*
X63699375Y-72589375D01*
X63500000Y-72887761D01*
X63300625Y-72589375D01*
X62990000Y-72381822D01*
X62990000Y-72214501D01*
X70770723Y-64433778D01*
X70744092Y-64505461D01*
X70768144Y-65155460D01*
X70970613Y-65644264D01*
X71237468Y-65742927D01*
X72210395Y-64770000D01*
X72196253Y-64755858D01*
X72375858Y-64576253D01*
X72390000Y-64590395D01*
X73362927Y-63617468D01*
X73264264Y-63350613D01*
X72654539Y-63124092D01*
X72058349Y-63146153D01*
X78664803Y-56539699D01*
X78939375Y-56950625D01*
G36*
X81479375Y-56950625D02*
X81777761Y-57150000D01*
X81479375Y-57349375D01*
X81464904Y-57371032D01*
X81398327Y-57210301D01*
X81219698Y-57031673D01*
X81058967Y-56965096D01*
X81080625Y-56950625D01*
X81280000Y-56652239D01*
X81479375Y-56950625D01*
X81479375Y-56950625D01*
G37*
X81479375Y-56950625D02*
X81777761Y-57150000D01*
X81479375Y-57349375D01*
X81464904Y-57371032D01*
X81398327Y-57210301D01*
X81219698Y-57031673D01*
X81058967Y-56965096D01*
X81080625Y-56950625D01*
X81280000Y-56652239D01*
X81479375Y-56950625D01*
G36*
X86358355Y-51566924D02*
X86748642Y-51995183D01*
X86878478Y-52056157D01*
X86559375Y-52269375D01*
X86231161Y-52760582D01*
X86115908Y-53340000D01*
X86188791Y-53706407D01*
X84055980Y-55839219D01*
X83948839Y-55300582D01*
X83699693Y-54927708D01*
X84603873Y-54023529D01*
X84667329Y-53981129D01*
X84835304Y-53729737D01*
X84879400Y-53508052D01*
X84879400Y-53508048D01*
X84894288Y-53433200D01*
X84879400Y-53358352D01*
X84879400Y-52865901D01*
X86305643Y-51439658D01*
X86358355Y-51566924D01*
X86358355Y-51566924D01*
G37*
X86358355Y-51566924D02*
X86748642Y-51995183D01*
X86878478Y-52056157D01*
X86559375Y-52269375D01*
X86231161Y-52760582D01*
X86115908Y-53340000D01*
X86188791Y-53706407D01*
X84055980Y-55839219D01*
X83948839Y-55300582D01*
X83699693Y-54927708D01*
X84603873Y-54023529D01*
X84667329Y-53981129D01*
X84835304Y-53729737D01*
X84879400Y-53508052D01*
X84879400Y-53508048D01*
X84894288Y-53433200D01*
X84879400Y-53358352D01*
X84879400Y-52865901D01*
X86305643Y-51439658D01*
X86358355Y-51566924D01*
G36*
X87757000Y-50673000D02*
X87777000Y-50673000D01*
X87777000Y-50927000D01*
X87757000Y-50927000D01*
X87757000Y-50947000D01*
X87503000Y-50947000D01*
X87503000Y-50927000D01*
X87483000Y-50927000D01*
X87483000Y-50673000D01*
X87503000Y-50673000D01*
X87503000Y-50653000D01*
X87757000Y-50653000D01*
X87757000Y-50673000D01*
X87757000Y-50673000D01*
G37*
X87757000Y-50673000D02*
X87777000Y-50673000D01*
X87777000Y-50927000D01*
X87757000Y-50927000D01*
X87757000Y-50947000D01*
X87503000Y-50947000D01*
X87503000Y-50927000D01*
X87483000Y-50927000D01*
X87483000Y-50673000D01*
X87503000Y-50673000D01*
X87503000Y-50653000D01*
X87757000Y-50653000D01*
X87757000Y-50673000D01*
G04 #@! TD*
M02*
