G04 #@! TF.GenerationSoftware,KiCad,Pcbnew,5.0.2+dfsg1-1*
G04 #@! TF.CreationDate,2020-10-09T16:27:47-03:00*
G04 #@! TF.ProjectId,esp3d_anet,65737033-645f-4616-9e65-742e6b696361,rev?*
G04 #@! TF.SameCoordinates,Original*
G04 #@! TF.FileFunction,Copper,L2,Bot*
G04 #@! TF.FilePolarity,Positive*
%FSLAX46Y46*%
G04 Gerber Fmt 4.6, Leading zero omitted, Abs format (unit mm)*
G04 Created by KiCad (PCBNEW 5.0.2+dfsg1-1) date vie 09 oct 2020 16:27:47 -03*
%MOMM*%
%LPD*%
G01*
G04 APERTURE LIST*
G04 #@! TA.AperFunction,ComponentPad*
%ADD10R,1.700000X1.700000*%
G04 #@! TD*
G04 #@! TA.AperFunction,ComponentPad*
%ADD11O,1.700000X1.700000*%
G04 #@! TD*
G04 #@! TA.AperFunction,ComponentPad*
%ADD12C,2.000000*%
G04 #@! TD*
G04 #@! TA.AperFunction,Conductor*
%ADD13C,0.250000*%
G04 #@! TD*
G04 #@! TA.AperFunction,Conductor*
%ADD14C,0.254000*%
G04 #@! TD*
G04 APERTURE END LIST*
D10*
G04 #@! TO.P,ESP-01,1*
G04 #@! TO.N,GND*
X80010000Y-58420000D03*
D11*
G04 #@! TO.P,ESP-01,2*
G04 #@! TO.N,ESP_TX*
X82550000Y-58420000D03*
G04 #@! TO.P,ESP-01,3*
G04 #@! TO.N,LED_OUT*
X80010000Y-55880000D03*
G04 #@! TO.P,ESP-01,4*
G04 #@! TO.N,3V3*
X82550000Y-55880000D03*
G04 #@! TO.P,ESP-01,5*
G04 #@! TO.N,BOOT_MODE*
X80010000Y-53340000D03*
G04 #@! TO.P,ESP-01,6*
G04 #@! TO.N,RESET*
X82550000Y-53340000D03*
G04 #@! TO.P,ESP-01,7*
G04 #@! TO.N,ESP_RX*
X80010000Y-50800000D03*
G04 #@! TO.P,ESP-01,8*
G04 #@! TO.N,3V3*
X82550000Y-50800000D03*
G04 #@! TD*
D10*
G04 #@! TO.P,3D PRINTER,1*
G04 #@! TO.N,ESP_TX*
X90170000Y-58420000D03*
D11*
G04 #@! TO.P,3D PRINTER,2*
G04 #@! TO.N,ESP_RX*
X87630000Y-58420000D03*
G04 #@! TO.P,3D PRINTER,3*
G04 #@! TO.N,3D_MISO*
X90170000Y-55880000D03*
G04 #@! TO.P,3D PRINTER,4*
G04 #@! TO.N,5V*
X87630000Y-55880000D03*
G04 #@! TO.P,3D PRINTER,5*
G04 #@! TO.N,3D_SCK*
X90170000Y-53340000D03*
G04 #@! TO.P,3D PRINTER,6*
G04 #@! TO.N,3D_MOSI*
X87630000Y-53340000D03*
G04 #@! TO.P,3D PRINTER,7*
G04 #@! TO.N,3D_RESET*
X90170000Y-50800000D03*
G04 #@! TO.P,3D PRINTER,8*
G04 #@! TO.N,GND*
X87630000Y-50800000D03*
G04 #@! TO.P,3D PRINTER,9*
G04 #@! TO.N,3D_FAN*
X90170000Y-48260000D03*
G04 #@! TO.P,3D PRINTER,10*
G04 #@! TO.N,3V3*
X87630000Y-48260000D03*
G04 #@! TD*
D10*
G04 #@! TO.P,LED STRIP,1*
G04 #@! TO.N,GND*
X90170000Y-73660000D03*
D11*
G04 #@! TO.P,LED STRIP,2*
G04 #@! TO.N,LED_OUT*
X87630000Y-73660000D03*
G04 #@! TO.P,LED STRIP,3*
G04 #@! TO.N,5V*
X85090000Y-73660000D03*
G04 #@! TD*
D10*
G04 #@! TO.P,1 - FAN & SPI,1*
G04 #@! TO.N,GND*
X57150000Y-73660000D03*
D11*
G04 #@! TO.P,1 - FAN & SPI,2*
G04 #@! TO.N,3V3*
X54610000Y-73660000D03*
G04 #@! TO.P,1 - FAN & SPI,3*
G04 #@! TO.N,5V*
X52070000Y-73660000D03*
G04 #@! TO.P,1 - FAN & SPI,4*
G04 #@! TO.N,3D_SCK*
X49530000Y-73660000D03*
G04 #@! TO.P,1 - FAN & SPI,5*
G04 #@! TO.N,3D_MISO*
X46990000Y-73660000D03*
G04 #@! TO.P,1 - FAN & SPI,6*
G04 #@! TO.N,3D_MOSI*
X44450000Y-73660000D03*
G04 #@! TO.P,1 - FAN & SPI,7*
G04 #@! TO.N,3D_RESET*
X41910000Y-73660000D03*
G04 #@! TO.P,1 - FAN & SPI,8*
G04 #@! TO.N,3D_FAN*
X39370000Y-73660000D03*
G04 #@! TD*
G04 #@! TO.P,2 - FAN & SPI,8*
G04 #@! TO.N,3D_FAN*
X62230000Y-73660000D03*
G04 #@! TO.P,2 - FAN & SPI,7*
G04 #@! TO.N,3D_RESET*
X64770000Y-73660000D03*
G04 #@! TO.P,2 - FAN & SPI,6*
G04 #@! TO.N,3D_MOSI*
X67310000Y-73660000D03*
G04 #@! TO.P,2 - FAN & SPI,5*
G04 #@! TO.N,3D_MISO*
X69850000Y-73660000D03*
G04 #@! TO.P,2 - FAN & SPI,4*
G04 #@! TO.N,3D_SCK*
X72390000Y-73660000D03*
G04 #@! TO.P,2 - FAN & SPI,3*
G04 #@! TO.N,5V*
X74930000Y-73660000D03*
G04 #@! TO.P,2 - FAN & SPI,2*
G04 #@! TO.N,3V3*
X77470000Y-73660000D03*
D10*
G04 #@! TO.P,2 - FAN & SPI,1*
G04 #@! TO.N,GND*
X80010000Y-73660000D03*
G04 #@! TD*
D12*
G04 #@! TO.P,UPLOAD MODE,3*
G04 #@! TO.N,N/C*
X78890000Y-64770000D03*
G04 #@! TO.P,UPLOAD MODE,2*
G04 #@! TO.N,BOOT_MODE*
X78890000Y-69270000D03*
G04 #@! TO.P,UPLOAD MODE,1*
G04 #@! TO.N,GND*
X72390000Y-64770000D03*
G04 #@! TO.P,UPLOAD MODE,4*
G04 #@! TO.N,N/C*
X72390000Y-69270000D03*
G04 #@! TD*
G04 #@! TO.P,RESET,4*
G04 #@! TO.N,N/C*
X83820000Y-69270000D03*
G04 #@! TO.P,RESET,1*
G04 #@! TO.N,GND*
X83820000Y-64770000D03*
G04 #@! TO.P,RESET,2*
G04 #@! TO.N,RESET*
X90320000Y-69270000D03*
G04 #@! TO.P,RESET,3*
G04 #@! TO.N,N/C*
X90320000Y-64770000D03*
G04 #@! TD*
D13*
G04 #@! TO.N,GND*
X80010000Y-72484700D02*
X80597700Y-71897000D01*
X80597700Y-71897000D02*
X80597700Y-67992300D01*
X80597700Y-67992300D02*
X83820000Y-64770000D01*
X83820000Y-64770000D02*
X80010000Y-60960000D01*
X80010000Y-60960000D02*
X80010000Y-58420000D01*
X80010000Y-73660000D02*
X80010000Y-72484700D01*
G04 #@! TO.N,ESP_TX*
X82550000Y-58420000D02*
X83725300Y-58420000D01*
X90170000Y-58420000D02*
X88994700Y-58420000D01*
X88994700Y-58420000D02*
X88994700Y-58787300D01*
X88994700Y-58787300D02*
X88186700Y-59595300D01*
X88186700Y-59595300D02*
X84900600Y-59595300D01*
X84900600Y-59595300D02*
X83725300Y-58420000D01*
G04 #@! TO.N,LED_OUT*
X87630000Y-73660000D02*
X87630000Y-72484700D01*
X80010000Y-57055300D02*
X80818100Y-57055300D01*
X80818100Y-57055300D02*
X81185300Y-57422500D01*
X81185300Y-57422500D02*
X81185300Y-60220800D01*
X81185300Y-60220800D02*
X87630000Y-66665500D01*
X87630000Y-66665500D02*
X87630000Y-72484700D01*
X80010000Y-55880000D02*
X80010000Y-57055300D01*
G04 #@! TO.N,3V3*
X81212200Y-52137800D02*
X79490800Y-52137800D01*
X79490800Y-52137800D02*
X77096800Y-54531800D01*
X77096800Y-54531800D02*
X77096800Y-72111500D01*
X77096800Y-72111500D02*
X77470000Y-72484700D01*
X82550000Y-50800000D02*
X81212200Y-52137800D01*
X81212200Y-52137800D02*
X81212200Y-53734200D01*
X81212200Y-53734200D02*
X82182700Y-54704700D01*
X82182700Y-54704700D02*
X82550000Y-54704700D01*
X82550000Y-55880000D02*
X82550000Y-54704700D01*
X77470000Y-73660000D02*
X77470000Y-72484700D01*
G04 #@! TO.N,BOOT_MODE*
X80010000Y-53340000D02*
X80010000Y-54515300D01*
X78890000Y-69270000D02*
X77550000Y-67930000D01*
X77550000Y-67930000D02*
X77550000Y-56608000D01*
X77550000Y-56608000D02*
X79642700Y-54515300D01*
X79642700Y-54515300D02*
X80010000Y-54515300D01*
G04 #@! TO.N,ESP_RX*
X80010000Y-50800000D02*
X81185300Y-50800000D01*
X87630000Y-58420000D02*
X87630000Y-57244700D01*
X87630000Y-57244700D02*
X87262600Y-57244700D01*
X87262600Y-57244700D02*
X86454700Y-56436800D01*
X86454700Y-56436800D02*
X86454700Y-53023100D01*
X86454700Y-53023100D02*
X83056300Y-49624700D01*
X83056300Y-49624700D02*
X81993200Y-49624700D01*
X81993200Y-49624700D02*
X81185300Y-50432600D01*
X81185300Y-50432600D02*
X81185300Y-50800000D01*
G04 #@! TO.N,3D_MISO*
X46990000Y-73660000D02*
X48165300Y-73660000D01*
X69850000Y-73660000D02*
X68674700Y-73660000D01*
X68674700Y-73660000D02*
X68674700Y-74027300D01*
X68674700Y-74027300D02*
X67357800Y-75344200D01*
X67357800Y-75344200D02*
X61559400Y-75344200D01*
X61559400Y-75344200D02*
X58699900Y-72484700D01*
X58699900Y-72484700D02*
X48973200Y-72484700D01*
X48973200Y-72484700D02*
X48165300Y-73292600D01*
X48165300Y-73292600D02*
X48165300Y-73660000D01*
G04 #@! TO.N,5V*
X85090000Y-73660000D02*
X83914700Y-73660000D01*
X74930000Y-73660000D02*
X76105300Y-73660000D01*
X76105300Y-73660000D02*
X76105300Y-74027300D01*
X76105300Y-74027300D02*
X76913300Y-74835300D01*
X76913300Y-74835300D02*
X82739400Y-74835300D01*
X82739400Y-74835300D02*
X83914700Y-73660000D01*
G04 #@! TO.N,3D_SCK*
X49530000Y-73660000D02*
X50705300Y-73660000D01*
X72390000Y-73660000D02*
X71214700Y-73660000D01*
X71214700Y-73660000D02*
X71214700Y-74027300D01*
X71214700Y-74027300D02*
X69433500Y-75808500D01*
X69433500Y-75808500D02*
X52486500Y-75808500D01*
X52486500Y-75808500D02*
X50705300Y-74027300D01*
X50705300Y-74027300D02*
X50705300Y-73660000D01*
G04 #@! TO.N,3D_MOSI*
X44450000Y-73660000D02*
X45625300Y-73660000D01*
X67310000Y-73660000D02*
X66134700Y-73660000D01*
X66134700Y-73660000D02*
X66134700Y-74027300D01*
X66134700Y-74027300D02*
X65286300Y-74875700D01*
X65286300Y-74875700D02*
X61783500Y-74875700D01*
X61783500Y-74875700D02*
X58926300Y-72018500D01*
X58926300Y-72018500D02*
X46899500Y-72018500D01*
X46899500Y-72018500D02*
X45625300Y-73292700D01*
X45625300Y-73292700D02*
X45625300Y-73660000D01*
G04 #@! TO.N,3D_RESET*
X61868700Y-71568100D02*
X63594700Y-73294100D01*
X63594700Y-73294100D02*
X63594700Y-73660000D01*
X43085300Y-73660000D02*
X43085300Y-73292700D01*
X43085300Y-73292700D02*
X44809900Y-71568100D01*
X44809900Y-71568100D02*
X61868700Y-71568100D01*
X61868700Y-71568100D02*
X61868700Y-67204100D01*
X61868700Y-67204100D02*
X79906700Y-49166100D01*
X79906700Y-49166100D02*
X86635900Y-49166100D01*
X86635900Y-49166100D02*
X87094500Y-49624700D01*
X87094500Y-49624700D02*
X88186800Y-49624700D01*
X88186800Y-49624700D02*
X88994700Y-50432600D01*
X88994700Y-50432600D02*
X88994700Y-50800000D01*
X90170000Y-50800000D02*
X88994700Y-50800000D01*
X41910000Y-73660000D02*
X43085300Y-73660000D01*
X64770000Y-73660000D02*
X63594700Y-73660000D01*
G04 #@! TD*
D14*
G04 #@! TO.N,GND*
G36*
X91899967Y-45198552D02*
X92331029Y-45369222D01*
X92706108Y-45641732D01*
X93001633Y-45998960D01*
X93199032Y-46418454D01*
X93292019Y-46905913D01*
X93295001Y-47000792D01*
X93295000Y-83776907D01*
X93231448Y-84279967D01*
X93060777Y-84711031D01*
X92788267Y-85086109D01*
X92431040Y-85381633D01*
X92011546Y-85579032D01*
X91524087Y-85672019D01*
X91429240Y-85675000D01*
X38143093Y-85675000D01*
X37640033Y-85611448D01*
X37208969Y-85440777D01*
X36833891Y-85168267D01*
X36538367Y-84811040D01*
X36340968Y-84391546D01*
X36247981Y-83904087D01*
X36245000Y-83809240D01*
X36245000Y-73660000D01*
X37855908Y-73660000D01*
X37971161Y-74239418D01*
X38299375Y-74730625D01*
X38790582Y-75058839D01*
X39223744Y-75145000D01*
X39516256Y-75145000D01*
X39949418Y-75058839D01*
X40440625Y-74730625D01*
X40640000Y-74432239D01*
X40839375Y-74730625D01*
X41330582Y-75058839D01*
X41763744Y-75145000D01*
X42056256Y-75145000D01*
X42489418Y-75058839D01*
X42980625Y-74730625D01*
X43180000Y-74432239D01*
X43379375Y-74730625D01*
X43870582Y-75058839D01*
X44303744Y-75145000D01*
X44596256Y-75145000D01*
X45029418Y-75058839D01*
X45520625Y-74730625D01*
X45720000Y-74432239D01*
X45919375Y-74730625D01*
X46410582Y-75058839D01*
X46843744Y-75145000D01*
X47136256Y-75145000D01*
X47569418Y-75058839D01*
X48060625Y-74730625D01*
X48260000Y-74432239D01*
X48459375Y-74730625D01*
X48950582Y-75058839D01*
X49383744Y-75145000D01*
X49676256Y-75145000D01*
X50109418Y-75058839D01*
X50440689Y-74837491D01*
X51896171Y-76292973D01*
X51938571Y-76356429D01*
X52189963Y-76524404D01*
X52411648Y-76568500D01*
X52411652Y-76568500D01*
X52486499Y-76583388D01*
X52561346Y-76568500D01*
X69358653Y-76568500D01*
X69433500Y-76583388D01*
X69508347Y-76568500D01*
X69508352Y-76568500D01*
X69730037Y-76524404D01*
X69981429Y-76356429D01*
X70023831Y-76292970D01*
X71479311Y-74837491D01*
X71810582Y-75058839D01*
X72243744Y-75145000D01*
X72536256Y-75145000D01*
X72969418Y-75058839D01*
X73460625Y-74730625D01*
X73660000Y-74432239D01*
X73859375Y-74730625D01*
X74350582Y-75058839D01*
X74783744Y-75145000D01*
X75076256Y-75145000D01*
X75509418Y-75058839D01*
X75840689Y-74837491D01*
X76322971Y-75319773D01*
X76365371Y-75383229D01*
X76616763Y-75551204D01*
X76838448Y-75595300D01*
X76838452Y-75595300D01*
X76913300Y-75610188D01*
X76988148Y-75595300D01*
X82664553Y-75595300D01*
X82739400Y-75610188D01*
X82814247Y-75595300D01*
X82814252Y-75595300D01*
X83035937Y-75551204D01*
X83287329Y-75383229D01*
X83329731Y-75319770D01*
X83979121Y-74670381D01*
X84019375Y-74730625D01*
X84510582Y-75058839D01*
X84943744Y-75145000D01*
X85236256Y-75145000D01*
X85669418Y-75058839D01*
X86160625Y-74730625D01*
X86360000Y-74432239D01*
X86559375Y-74730625D01*
X87050582Y-75058839D01*
X87483744Y-75145000D01*
X87776256Y-75145000D01*
X88209418Y-75058839D01*
X88700625Y-74730625D01*
X88715096Y-74708967D01*
X88781673Y-74869698D01*
X88960301Y-75048327D01*
X89193690Y-75145000D01*
X89884250Y-75145000D01*
X90043000Y-74986250D01*
X90043000Y-73787000D01*
X90297000Y-73787000D01*
X90297000Y-74986250D01*
X90455750Y-75145000D01*
X91146310Y-75145000D01*
X91379699Y-75048327D01*
X91558327Y-74869698D01*
X91655000Y-74636309D01*
X91655000Y-73945750D01*
X91496250Y-73787000D01*
X90297000Y-73787000D01*
X90043000Y-73787000D01*
X90023000Y-73787000D01*
X90023000Y-73533000D01*
X90043000Y-73533000D01*
X90043000Y-72333750D01*
X90297000Y-72333750D01*
X90297000Y-73533000D01*
X91496250Y-73533000D01*
X91655000Y-73374250D01*
X91655000Y-72683691D01*
X91558327Y-72450302D01*
X91379699Y-72271673D01*
X91146310Y-72175000D01*
X90455750Y-72175000D01*
X90297000Y-72333750D01*
X90043000Y-72333750D01*
X89884250Y-72175000D01*
X89193690Y-72175000D01*
X88960301Y-72271673D01*
X88781673Y-72450302D01*
X88715096Y-72611033D01*
X88700625Y-72589375D01*
X88390000Y-72381822D01*
X88390000Y-68944778D01*
X88685000Y-68944778D01*
X88685000Y-69595222D01*
X88933914Y-70196153D01*
X89393847Y-70656086D01*
X89994778Y-70905000D01*
X90645222Y-70905000D01*
X91246153Y-70656086D01*
X91706086Y-70196153D01*
X91955000Y-69595222D01*
X91955000Y-68944778D01*
X91706086Y-68343847D01*
X91246153Y-67883914D01*
X90645222Y-67635000D01*
X89994778Y-67635000D01*
X89393847Y-67883914D01*
X88933914Y-68343847D01*
X88685000Y-68944778D01*
X88390000Y-68944778D01*
X88390000Y-66740346D01*
X88404888Y-66665499D01*
X88390000Y-66590652D01*
X88390000Y-66590648D01*
X88345904Y-66368963D01*
X88177929Y-66117571D01*
X88114473Y-66075171D01*
X86484080Y-64444778D01*
X88685000Y-64444778D01*
X88685000Y-65095222D01*
X88933914Y-65696153D01*
X89393847Y-66156086D01*
X89994778Y-66405000D01*
X90645222Y-66405000D01*
X91246153Y-66156086D01*
X91706086Y-65696153D01*
X91955000Y-65095222D01*
X91955000Y-64444778D01*
X91706086Y-63843847D01*
X91246153Y-63383914D01*
X90645222Y-63135000D01*
X89994778Y-63135000D01*
X89393847Y-63383914D01*
X88933914Y-63843847D01*
X88685000Y-64444778D01*
X86484080Y-64444778D01*
X81945300Y-59905999D01*
X81945300Y-59801946D01*
X81970582Y-59818839D01*
X82403744Y-59905000D01*
X82696256Y-59905000D01*
X83129418Y-59818839D01*
X83620625Y-59490625D01*
X83660879Y-59430380D01*
X84310271Y-60079773D01*
X84352671Y-60143229D01*
X84604063Y-60311204D01*
X84825748Y-60355300D01*
X84825752Y-60355300D01*
X84900599Y-60370188D01*
X84975446Y-60355300D01*
X88111853Y-60355300D01*
X88186700Y-60370188D01*
X88261547Y-60355300D01*
X88261552Y-60355300D01*
X88483237Y-60311204D01*
X88734629Y-60143229D01*
X88777031Y-60079770D01*
X89022126Y-59834675D01*
X89072235Y-59868157D01*
X89320000Y-59917440D01*
X91020000Y-59917440D01*
X91267765Y-59868157D01*
X91477809Y-59727809D01*
X91618157Y-59517765D01*
X91667440Y-59270000D01*
X91667440Y-57570000D01*
X91618157Y-57322235D01*
X91477809Y-57112191D01*
X91267765Y-56971843D01*
X91222381Y-56962816D01*
X91240625Y-56950625D01*
X91568839Y-56459418D01*
X91684092Y-55880000D01*
X91568839Y-55300582D01*
X91240625Y-54809375D01*
X90942239Y-54610000D01*
X91240625Y-54410625D01*
X91568839Y-53919418D01*
X91684092Y-53340000D01*
X91568839Y-52760582D01*
X91240625Y-52269375D01*
X90942239Y-52070000D01*
X91240625Y-51870625D01*
X91568839Y-51379418D01*
X91684092Y-50800000D01*
X91568839Y-50220582D01*
X91240625Y-49729375D01*
X90942239Y-49530000D01*
X91240625Y-49330625D01*
X91568839Y-48839418D01*
X91684092Y-48260000D01*
X91568839Y-47680582D01*
X91240625Y-47189375D01*
X90749418Y-46861161D01*
X90316256Y-46775000D01*
X90023744Y-46775000D01*
X89590582Y-46861161D01*
X89099375Y-47189375D01*
X88900000Y-47487761D01*
X88700625Y-47189375D01*
X88209418Y-46861161D01*
X87776256Y-46775000D01*
X87483744Y-46775000D01*
X87050582Y-46861161D01*
X86559375Y-47189375D01*
X86231161Y-47680582D01*
X86115908Y-48260000D01*
X86144969Y-48406100D01*
X79981546Y-48406100D01*
X79906699Y-48391212D01*
X79831852Y-48406100D01*
X79831848Y-48406100D01*
X79610163Y-48450196D01*
X79358771Y-48618171D01*
X79316371Y-48681627D01*
X61384228Y-66613771D01*
X61320772Y-66656171D01*
X61278372Y-66719627D01*
X61278371Y-66719628D01*
X61152797Y-66907563D01*
X61093812Y-67204100D01*
X61108701Y-67278952D01*
X61108700Y-70808100D01*
X44884748Y-70808100D01*
X44809900Y-70793212D01*
X44735052Y-70808100D01*
X44735048Y-70808100D01*
X44561505Y-70842620D01*
X44513362Y-70852196D01*
X44434336Y-70905000D01*
X44261971Y-71020171D01*
X44219571Y-71083627D01*
X42820689Y-72482509D01*
X42489418Y-72261161D01*
X42056256Y-72175000D01*
X41763744Y-72175000D01*
X41330582Y-72261161D01*
X40839375Y-72589375D01*
X40640000Y-72887761D01*
X40440625Y-72589375D01*
X39949418Y-72261161D01*
X39516256Y-72175000D01*
X39223744Y-72175000D01*
X38790582Y-72261161D01*
X38299375Y-72589375D01*
X37971161Y-73080582D01*
X37855908Y-73660000D01*
X36245000Y-73660000D01*
X36245000Y-49573101D01*
X36308552Y-49070033D01*
X36479222Y-48638971D01*
X36751732Y-48263892D01*
X37108960Y-47968367D01*
X37528454Y-47770968D01*
X38015913Y-47677981D01*
X38110760Y-47675000D01*
X82617462Y-47675000D01*
X82646953Y-47669134D01*
X82830234Y-47653099D01*
X82916680Y-47629936D01*
X83004817Y-47614395D01*
X83419285Y-47463541D01*
X83625310Y-47344592D01*
X83963186Y-47061080D01*
X84040883Y-46968484D01*
X84116103Y-46878841D01*
X84336636Y-46496868D01*
X84337495Y-46494510D01*
X84363358Y-46423450D01*
X84418003Y-46273316D01*
X84418003Y-46273314D01*
X84469889Y-45979051D01*
X84721988Y-45597665D01*
X85111457Y-45237834D01*
X85281255Y-45135000D01*
X91396899Y-45135000D01*
X91899967Y-45198552D01*
X91899967Y-45198552D01*
G37*
X91899967Y-45198552D02*
X92331029Y-45369222D01*
X92706108Y-45641732D01*
X93001633Y-45998960D01*
X93199032Y-46418454D01*
X93292019Y-46905913D01*
X93295001Y-47000792D01*
X93295000Y-83776907D01*
X93231448Y-84279967D01*
X93060777Y-84711031D01*
X92788267Y-85086109D01*
X92431040Y-85381633D01*
X92011546Y-85579032D01*
X91524087Y-85672019D01*
X91429240Y-85675000D01*
X38143093Y-85675000D01*
X37640033Y-85611448D01*
X37208969Y-85440777D01*
X36833891Y-85168267D01*
X36538367Y-84811040D01*
X36340968Y-84391546D01*
X36247981Y-83904087D01*
X36245000Y-83809240D01*
X36245000Y-73660000D01*
X37855908Y-73660000D01*
X37971161Y-74239418D01*
X38299375Y-74730625D01*
X38790582Y-75058839D01*
X39223744Y-75145000D01*
X39516256Y-75145000D01*
X39949418Y-75058839D01*
X40440625Y-74730625D01*
X40640000Y-74432239D01*
X40839375Y-74730625D01*
X41330582Y-75058839D01*
X41763744Y-75145000D01*
X42056256Y-75145000D01*
X42489418Y-75058839D01*
X42980625Y-74730625D01*
X43180000Y-74432239D01*
X43379375Y-74730625D01*
X43870582Y-75058839D01*
X44303744Y-75145000D01*
X44596256Y-75145000D01*
X45029418Y-75058839D01*
X45520625Y-74730625D01*
X45720000Y-74432239D01*
X45919375Y-74730625D01*
X46410582Y-75058839D01*
X46843744Y-75145000D01*
X47136256Y-75145000D01*
X47569418Y-75058839D01*
X48060625Y-74730625D01*
X48260000Y-74432239D01*
X48459375Y-74730625D01*
X48950582Y-75058839D01*
X49383744Y-75145000D01*
X49676256Y-75145000D01*
X50109418Y-75058839D01*
X50440689Y-74837491D01*
X51896171Y-76292973D01*
X51938571Y-76356429D01*
X52189963Y-76524404D01*
X52411648Y-76568500D01*
X52411652Y-76568500D01*
X52486499Y-76583388D01*
X52561346Y-76568500D01*
X69358653Y-76568500D01*
X69433500Y-76583388D01*
X69508347Y-76568500D01*
X69508352Y-76568500D01*
X69730037Y-76524404D01*
X69981429Y-76356429D01*
X70023831Y-76292970D01*
X71479311Y-74837491D01*
X71810582Y-75058839D01*
X72243744Y-75145000D01*
X72536256Y-75145000D01*
X72969418Y-75058839D01*
X73460625Y-74730625D01*
X73660000Y-74432239D01*
X73859375Y-74730625D01*
X74350582Y-75058839D01*
X74783744Y-75145000D01*
X75076256Y-75145000D01*
X75509418Y-75058839D01*
X75840689Y-74837491D01*
X76322971Y-75319773D01*
X76365371Y-75383229D01*
X76616763Y-75551204D01*
X76838448Y-75595300D01*
X76838452Y-75595300D01*
X76913300Y-75610188D01*
X76988148Y-75595300D01*
X82664553Y-75595300D01*
X82739400Y-75610188D01*
X82814247Y-75595300D01*
X82814252Y-75595300D01*
X83035937Y-75551204D01*
X83287329Y-75383229D01*
X83329731Y-75319770D01*
X83979121Y-74670381D01*
X84019375Y-74730625D01*
X84510582Y-75058839D01*
X84943744Y-75145000D01*
X85236256Y-75145000D01*
X85669418Y-75058839D01*
X86160625Y-74730625D01*
X86360000Y-74432239D01*
X86559375Y-74730625D01*
X87050582Y-75058839D01*
X87483744Y-75145000D01*
X87776256Y-75145000D01*
X88209418Y-75058839D01*
X88700625Y-74730625D01*
X88715096Y-74708967D01*
X88781673Y-74869698D01*
X88960301Y-75048327D01*
X89193690Y-75145000D01*
X89884250Y-75145000D01*
X90043000Y-74986250D01*
X90043000Y-73787000D01*
X90297000Y-73787000D01*
X90297000Y-74986250D01*
X90455750Y-75145000D01*
X91146310Y-75145000D01*
X91379699Y-75048327D01*
X91558327Y-74869698D01*
X91655000Y-74636309D01*
X91655000Y-73945750D01*
X91496250Y-73787000D01*
X90297000Y-73787000D01*
X90043000Y-73787000D01*
X90023000Y-73787000D01*
X90023000Y-73533000D01*
X90043000Y-73533000D01*
X90043000Y-72333750D01*
X90297000Y-72333750D01*
X90297000Y-73533000D01*
X91496250Y-73533000D01*
X91655000Y-73374250D01*
X91655000Y-72683691D01*
X91558327Y-72450302D01*
X91379699Y-72271673D01*
X91146310Y-72175000D01*
X90455750Y-72175000D01*
X90297000Y-72333750D01*
X90043000Y-72333750D01*
X89884250Y-72175000D01*
X89193690Y-72175000D01*
X88960301Y-72271673D01*
X88781673Y-72450302D01*
X88715096Y-72611033D01*
X88700625Y-72589375D01*
X88390000Y-72381822D01*
X88390000Y-68944778D01*
X88685000Y-68944778D01*
X88685000Y-69595222D01*
X88933914Y-70196153D01*
X89393847Y-70656086D01*
X89994778Y-70905000D01*
X90645222Y-70905000D01*
X91246153Y-70656086D01*
X91706086Y-70196153D01*
X91955000Y-69595222D01*
X91955000Y-68944778D01*
X91706086Y-68343847D01*
X91246153Y-67883914D01*
X90645222Y-67635000D01*
X89994778Y-67635000D01*
X89393847Y-67883914D01*
X88933914Y-68343847D01*
X88685000Y-68944778D01*
X88390000Y-68944778D01*
X88390000Y-66740346D01*
X88404888Y-66665499D01*
X88390000Y-66590652D01*
X88390000Y-66590648D01*
X88345904Y-66368963D01*
X88177929Y-66117571D01*
X88114473Y-66075171D01*
X86484080Y-64444778D01*
X88685000Y-64444778D01*
X88685000Y-65095222D01*
X88933914Y-65696153D01*
X89393847Y-66156086D01*
X89994778Y-66405000D01*
X90645222Y-66405000D01*
X91246153Y-66156086D01*
X91706086Y-65696153D01*
X91955000Y-65095222D01*
X91955000Y-64444778D01*
X91706086Y-63843847D01*
X91246153Y-63383914D01*
X90645222Y-63135000D01*
X89994778Y-63135000D01*
X89393847Y-63383914D01*
X88933914Y-63843847D01*
X88685000Y-64444778D01*
X86484080Y-64444778D01*
X81945300Y-59905999D01*
X81945300Y-59801946D01*
X81970582Y-59818839D01*
X82403744Y-59905000D01*
X82696256Y-59905000D01*
X83129418Y-59818839D01*
X83620625Y-59490625D01*
X83660879Y-59430380D01*
X84310271Y-60079773D01*
X84352671Y-60143229D01*
X84604063Y-60311204D01*
X84825748Y-60355300D01*
X84825752Y-60355300D01*
X84900599Y-60370188D01*
X84975446Y-60355300D01*
X88111853Y-60355300D01*
X88186700Y-60370188D01*
X88261547Y-60355300D01*
X88261552Y-60355300D01*
X88483237Y-60311204D01*
X88734629Y-60143229D01*
X88777031Y-60079770D01*
X89022126Y-59834675D01*
X89072235Y-59868157D01*
X89320000Y-59917440D01*
X91020000Y-59917440D01*
X91267765Y-59868157D01*
X91477809Y-59727809D01*
X91618157Y-59517765D01*
X91667440Y-59270000D01*
X91667440Y-57570000D01*
X91618157Y-57322235D01*
X91477809Y-57112191D01*
X91267765Y-56971843D01*
X91222381Y-56962816D01*
X91240625Y-56950625D01*
X91568839Y-56459418D01*
X91684092Y-55880000D01*
X91568839Y-55300582D01*
X91240625Y-54809375D01*
X90942239Y-54610000D01*
X91240625Y-54410625D01*
X91568839Y-53919418D01*
X91684092Y-53340000D01*
X91568839Y-52760582D01*
X91240625Y-52269375D01*
X90942239Y-52070000D01*
X91240625Y-51870625D01*
X91568839Y-51379418D01*
X91684092Y-50800000D01*
X91568839Y-50220582D01*
X91240625Y-49729375D01*
X90942239Y-49530000D01*
X91240625Y-49330625D01*
X91568839Y-48839418D01*
X91684092Y-48260000D01*
X91568839Y-47680582D01*
X91240625Y-47189375D01*
X90749418Y-46861161D01*
X90316256Y-46775000D01*
X90023744Y-46775000D01*
X89590582Y-46861161D01*
X89099375Y-47189375D01*
X88900000Y-47487761D01*
X88700625Y-47189375D01*
X88209418Y-46861161D01*
X87776256Y-46775000D01*
X87483744Y-46775000D01*
X87050582Y-46861161D01*
X86559375Y-47189375D01*
X86231161Y-47680582D01*
X86115908Y-48260000D01*
X86144969Y-48406100D01*
X79981546Y-48406100D01*
X79906699Y-48391212D01*
X79831852Y-48406100D01*
X79831848Y-48406100D01*
X79610163Y-48450196D01*
X79358771Y-48618171D01*
X79316371Y-48681627D01*
X61384228Y-66613771D01*
X61320772Y-66656171D01*
X61278372Y-66719627D01*
X61278371Y-66719628D01*
X61152797Y-66907563D01*
X61093812Y-67204100D01*
X61108701Y-67278952D01*
X61108700Y-70808100D01*
X44884748Y-70808100D01*
X44809900Y-70793212D01*
X44735052Y-70808100D01*
X44735048Y-70808100D01*
X44561505Y-70842620D01*
X44513362Y-70852196D01*
X44434336Y-70905000D01*
X44261971Y-71020171D01*
X44219571Y-71083627D01*
X42820689Y-72482509D01*
X42489418Y-72261161D01*
X42056256Y-72175000D01*
X41763744Y-72175000D01*
X41330582Y-72261161D01*
X40839375Y-72589375D01*
X40640000Y-72887761D01*
X40440625Y-72589375D01*
X39949418Y-72261161D01*
X39516256Y-72175000D01*
X39223744Y-72175000D01*
X38790582Y-72261161D01*
X38299375Y-72589375D01*
X37971161Y-73080582D01*
X37855908Y-73660000D01*
X36245000Y-73660000D01*
X36245000Y-49573101D01*
X36308552Y-49070033D01*
X36479222Y-48638971D01*
X36751732Y-48263892D01*
X37108960Y-47968367D01*
X37528454Y-47770968D01*
X38015913Y-47677981D01*
X38110760Y-47675000D01*
X82617462Y-47675000D01*
X82646953Y-47669134D01*
X82830234Y-47653099D01*
X82916680Y-47629936D01*
X83004817Y-47614395D01*
X83419285Y-47463541D01*
X83625310Y-47344592D01*
X83963186Y-47061080D01*
X84040883Y-46968484D01*
X84116103Y-46878841D01*
X84336636Y-46496868D01*
X84337495Y-46494510D01*
X84363358Y-46423450D01*
X84418003Y-46273316D01*
X84418003Y-46273314D01*
X84469889Y-45979051D01*
X84721988Y-45597665D01*
X85111457Y-45237834D01*
X85281255Y-45135000D01*
X91396899Y-45135000D01*
X91899967Y-45198552D01*
G36*
X60188898Y-75048500D02*
X58359281Y-75048500D01*
X58359699Y-75048327D01*
X58538327Y-74869698D01*
X58635000Y-74636309D01*
X58635000Y-73945750D01*
X58476250Y-73787000D01*
X57277000Y-73787000D01*
X57277000Y-73807000D01*
X57023000Y-73807000D01*
X57023000Y-73787000D01*
X57003000Y-73787000D01*
X57003000Y-73533000D01*
X57023000Y-73533000D01*
X57023000Y-73513000D01*
X57277000Y-73513000D01*
X57277000Y-73533000D01*
X58476250Y-73533000D01*
X58574824Y-73434426D01*
X60188898Y-75048500D01*
X60188898Y-75048500D01*
G37*
X60188898Y-75048500D02*
X58359281Y-75048500D01*
X58359699Y-75048327D01*
X58538327Y-74869698D01*
X58635000Y-74636309D01*
X58635000Y-73945750D01*
X58476250Y-73787000D01*
X57277000Y-73787000D01*
X57277000Y-73807000D01*
X57023000Y-73807000D01*
X57023000Y-73787000D01*
X57003000Y-73787000D01*
X57003000Y-73533000D01*
X57023000Y-73533000D01*
X57023000Y-73513000D01*
X57277000Y-73513000D01*
X57277000Y-73533000D01*
X58476250Y-73533000D01*
X58574824Y-73434426D01*
X60188898Y-75048500D01*
G36*
X78939375Y-56950625D02*
X78961033Y-56965096D01*
X78800302Y-57031673D01*
X78621673Y-57210301D01*
X78525000Y-57443690D01*
X78525000Y-58134250D01*
X78683750Y-58293000D01*
X79883000Y-58293000D01*
X79883000Y-58273000D01*
X80137000Y-58273000D01*
X80137000Y-58293000D01*
X80157000Y-58293000D01*
X80157000Y-58547000D01*
X80137000Y-58547000D01*
X80137000Y-59746250D01*
X80295750Y-59905000D01*
X80425301Y-59905000D01*
X80425301Y-60145948D01*
X80410412Y-60220800D01*
X80425301Y-60295652D01*
X80469397Y-60517337D01*
X80637372Y-60768729D01*
X80700828Y-60811129D01*
X83154032Y-63264334D01*
X82945736Y-63350613D01*
X82847073Y-63617468D01*
X83820000Y-64590395D01*
X83834143Y-64576253D01*
X84013748Y-64755858D01*
X83999605Y-64770000D01*
X84972532Y-65742927D01*
X85239387Y-65644264D01*
X85319181Y-65429483D01*
X86870000Y-66980302D01*
X86870001Y-72381821D01*
X86559375Y-72589375D01*
X86360000Y-72887761D01*
X86160625Y-72589375D01*
X85669418Y-72261161D01*
X85236256Y-72175000D01*
X84943744Y-72175000D01*
X84510582Y-72261161D01*
X84019375Y-72589375D01*
X83807526Y-72906429D01*
X83618163Y-72944096D01*
X83366771Y-73112071D01*
X83324371Y-73175527D01*
X82424599Y-74075300D01*
X81495000Y-74075300D01*
X81495000Y-73945750D01*
X81336250Y-73787000D01*
X80137000Y-73787000D01*
X80137000Y-73807000D01*
X79883000Y-73807000D01*
X79883000Y-73787000D01*
X79863000Y-73787000D01*
X79863000Y-73533000D01*
X79883000Y-73533000D01*
X79883000Y-72333750D01*
X80137000Y-72333750D01*
X80137000Y-73533000D01*
X81336250Y-73533000D01*
X81495000Y-73374250D01*
X81495000Y-72683691D01*
X81398327Y-72450302D01*
X81219699Y-72271673D01*
X80986310Y-72175000D01*
X80295750Y-72175000D01*
X80137000Y-72333750D01*
X79883000Y-72333750D01*
X79724250Y-72175000D01*
X79033690Y-72175000D01*
X78800301Y-72271673D01*
X78621673Y-72450302D01*
X78555096Y-72611033D01*
X78540625Y-72589375D01*
X78223571Y-72377526D01*
X78185904Y-72188163D01*
X78017929Y-71936771D01*
X77954470Y-71894369D01*
X77856800Y-71796699D01*
X77856800Y-70549039D01*
X77963847Y-70656086D01*
X78564778Y-70905000D01*
X79215222Y-70905000D01*
X79816153Y-70656086D01*
X80276086Y-70196153D01*
X80525000Y-69595222D01*
X80525000Y-68944778D01*
X82185000Y-68944778D01*
X82185000Y-69595222D01*
X82433914Y-70196153D01*
X82893847Y-70656086D01*
X83494778Y-70905000D01*
X84145222Y-70905000D01*
X84746153Y-70656086D01*
X85206086Y-70196153D01*
X85455000Y-69595222D01*
X85455000Y-68944778D01*
X85206086Y-68343847D01*
X84746153Y-67883914D01*
X84145222Y-67635000D01*
X83494778Y-67635000D01*
X82893847Y-67883914D01*
X82433914Y-68343847D01*
X82185000Y-68944778D01*
X80525000Y-68944778D01*
X80276086Y-68343847D01*
X79816153Y-67883914D01*
X79215222Y-67635000D01*
X78564778Y-67635000D01*
X78398624Y-67703823D01*
X78310000Y-67615199D01*
X78310000Y-66299467D01*
X78564778Y-66405000D01*
X79215222Y-66405000D01*
X79816153Y-66156086D01*
X80049707Y-65922532D01*
X82847073Y-65922532D01*
X82945736Y-66189387D01*
X83555461Y-66415908D01*
X84205460Y-66391856D01*
X84694264Y-66189387D01*
X84792927Y-65922532D01*
X83820000Y-64949605D01*
X82847073Y-65922532D01*
X80049707Y-65922532D01*
X80276086Y-65696153D01*
X80525000Y-65095222D01*
X80525000Y-64505461D01*
X82174092Y-64505461D01*
X82198144Y-65155460D01*
X82400613Y-65644264D01*
X82667468Y-65742927D01*
X83640395Y-64770000D01*
X82667468Y-63797073D01*
X82400613Y-63895736D01*
X82174092Y-64505461D01*
X80525000Y-64505461D01*
X80525000Y-64444778D01*
X80276086Y-63843847D01*
X79816153Y-63383914D01*
X79215222Y-63135000D01*
X78564778Y-63135000D01*
X78310000Y-63240533D01*
X78310000Y-58705750D01*
X78525000Y-58705750D01*
X78525000Y-59396310D01*
X78621673Y-59629699D01*
X78800302Y-59808327D01*
X79033691Y-59905000D01*
X79724250Y-59905000D01*
X79883000Y-59746250D01*
X79883000Y-58547000D01*
X78683750Y-58547000D01*
X78525000Y-58705750D01*
X78310000Y-58705750D01*
X78310000Y-56922801D01*
X78676138Y-56556663D01*
X78939375Y-56950625D01*
X78939375Y-56950625D01*
G37*
X78939375Y-56950625D02*
X78961033Y-56965096D01*
X78800302Y-57031673D01*
X78621673Y-57210301D01*
X78525000Y-57443690D01*
X78525000Y-58134250D01*
X78683750Y-58293000D01*
X79883000Y-58293000D01*
X79883000Y-58273000D01*
X80137000Y-58273000D01*
X80137000Y-58293000D01*
X80157000Y-58293000D01*
X80157000Y-58547000D01*
X80137000Y-58547000D01*
X80137000Y-59746250D01*
X80295750Y-59905000D01*
X80425301Y-59905000D01*
X80425301Y-60145948D01*
X80410412Y-60220800D01*
X80425301Y-60295652D01*
X80469397Y-60517337D01*
X80637372Y-60768729D01*
X80700828Y-60811129D01*
X83154032Y-63264334D01*
X82945736Y-63350613D01*
X82847073Y-63617468D01*
X83820000Y-64590395D01*
X83834143Y-64576253D01*
X84013748Y-64755858D01*
X83999605Y-64770000D01*
X84972532Y-65742927D01*
X85239387Y-65644264D01*
X85319181Y-65429483D01*
X86870000Y-66980302D01*
X86870001Y-72381821D01*
X86559375Y-72589375D01*
X86360000Y-72887761D01*
X86160625Y-72589375D01*
X85669418Y-72261161D01*
X85236256Y-72175000D01*
X84943744Y-72175000D01*
X84510582Y-72261161D01*
X84019375Y-72589375D01*
X83807526Y-72906429D01*
X83618163Y-72944096D01*
X83366771Y-73112071D01*
X83324371Y-73175527D01*
X82424599Y-74075300D01*
X81495000Y-74075300D01*
X81495000Y-73945750D01*
X81336250Y-73787000D01*
X80137000Y-73787000D01*
X80137000Y-73807000D01*
X79883000Y-73807000D01*
X79883000Y-73787000D01*
X79863000Y-73787000D01*
X79863000Y-73533000D01*
X79883000Y-73533000D01*
X79883000Y-72333750D01*
X80137000Y-72333750D01*
X80137000Y-73533000D01*
X81336250Y-73533000D01*
X81495000Y-73374250D01*
X81495000Y-72683691D01*
X81398327Y-72450302D01*
X81219699Y-72271673D01*
X80986310Y-72175000D01*
X80295750Y-72175000D01*
X80137000Y-72333750D01*
X79883000Y-72333750D01*
X79724250Y-72175000D01*
X79033690Y-72175000D01*
X78800301Y-72271673D01*
X78621673Y-72450302D01*
X78555096Y-72611033D01*
X78540625Y-72589375D01*
X78223571Y-72377526D01*
X78185904Y-72188163D01*
X78017929Y-71936771D01*
X77954470Y-71894369D01*
X77856800Y-71796699D01*
X77856800Y-70549039D01*
X77963847Y-70656086D01*
X78564778Y-70905000D01*
X79215222Y-70905000D01*
X79816153Y-70656086D01*
X80276086Y-70196153D01*
X80525000Y-69595222D01*
X80525000Y-68944778D01*
X82185000Y-68944778D01*
X82185000Y-69595222D01*
X82433914Y-70196153D01*
X82893847Y-70656086D01*
X83494778Y-70905000D01*
X84145222Y-70905000D01*
X84746153Y-70656086D01*
X85206086Y-70196153D01*
X85455000Y-69595222D01*
X85455000Y-68944778D01*
X85206086Y-68343847D01*
X84746153Y-67883914D01*
X84145222Y-67635000D01*
X83494778Y-67635000D01*
X82893847Y-67883914D01*
X82433914Y-68343847D01*
X82185000Y-68944778D01*
X80525000Y-68944778D01*
X80276086Y-68343847D01*
X79816153Y-67883914D01*
X79215222Y-67635000D01*
X78564778Y-67635000D01*
X78398624Y-67703823D01*
X78310000Y-67615199D01*
X78310000Y-66299467D01*
X78564778Y-66405000D01*
X79215222Y-66405000D01*
X79816153Y-66156086D01*
X80049707Y-65922532D01*
X82847073Y-65922532D01*
X82945736Y-66189387D01*
X83555461Y-66415908D01*
X84205460Y-66391856D01*
X84694264Y-66189387D01*
X84792927Y-65922532D01*
X83820000Y-64949605D01*
X82847073Y-65922532D01*
X80049707Y-65922532D01*
X80276086Y-65696153D01*
X80525000Y-65095222D01*
X80525000Y-64505461D01*
X82174092Y-64505461D01*
X82198144Y-65155460D01*
X82400613Y-65644264D01*
X82667468Y-65742927D01*
X83640395Y-64770000D01*
X82667468Y-63797073D01*
X82400613Y-63895736D01*
X82174092Y-64505461D01*
X80525000Y-64505461D01*
X80525000Y-64444778D01*
X80276086Y-63843847D01*
X79816153Y-63383914D01*
X79215222Y-63135000D01*
X78564778Y-63135000D01*
X78310000Y-63240533D01*
X78310000Y-58705750D01*
X78525000Y-58705750D01*
X78525000Y-59396310D01*
X78621673Y-59629699D01*
X78800302Y-59808327D01*
X79033691Y-59905000D01*
X79724250Y-59905000D01*
X79883000Y-59746250D01*
X79883000Y-58547000D01*
X78683750Y-58547000D01*
X78525000Y-58705750D01*
X78310000Y-58705750D01*
X78310000Y-56922801D01*
X78676138Y-56556663D01*
X78939375Y-56950625D01*
G36*
X78836755Y-51717043D02*
X76612330Y-53941469D01*
X76548871Y-53983871D01*
X76380896Y-54235264D01*
X76336800Y-54456949D01*
X76336800Y-54456953D01*
X76321912Y-54531800D01*
X76336800Y-54606647D01*
X76336801Y-72036648D01*
X76321912Y-72111500D01*
X76380897Y-72408037D01*
X76470368Y-72541939D01*
X76399375Y-72589375D01*
X76200000Y-72887761D01*
X76000625Y-72589375D01*
X75509418Y-72261161D01*
X75076256Y-72175000D01*
X74783744Y-72175000D01*
X74350582Y-72261161D01*
X73859375Y-72589375D01*
X73660000Y-72887761D01*
X73460625Y-72589375D01*
X72969418Y-72261161D01*
X72536256Y-72175000D01*
X72243744Y-72175000D01*
X71810582Y-72261161D01*
X71319375Y-72589375D01*
X71120000Y-72887761D01*
X70920625Y-72589375D01*
X70429418Y-72261161D01*
X69996256Y-72175000D01*
X69703744Y-72175000D01*
X69270582Y-72261161D01*
X68779375Y-72589375D01*
X68580000Y-72887761D01*
X68380625Y-72589375D01*
X67889418Y-72261161D01*
X67456256Y-72175000D01*
X67163744Y-72175000D01*
X66730582Y-72261161D01*
X66239375Y-72589375D01*
X66040000Y-72887761D01*
X65840625Y-72589375D01*
X65349418Y-72261161D01*
X64916256Y-72175000D01*
X64623744Y-72175000D01*
X64190582Y-72261161D01*
X63858472Y-72483070D01*
X62628700Y-71253299D01*
X62628700Y-68944778D01*
X70755000Y-68944778D01*
X70755000Y-69595222D01*
X71003914Y-70196153D01*
X71463847Y-70656086D01*
X72064778Y-70905000D01*
X72715222Y-70905000D01*
X73316153Y-70656086D01*
X73776086Y-70196153D01*
X74025000Y-69595222D01*
X74025000Y-68944778D01*
X73776086Y-68343847D01*
X73316153Y-67883914D01*
X72715222Y-67635000D01*
X72064778Y-67635000D01*
X71463847Y-67883914D01*
X71003914Y-68343847D01*
X70755000Y-68944778D01*
X62628700Y-68944778D01*
X62628700Y-67518901D01*
X64225069Y-65922532D01*
X71417073Y-65922532D01*
X71515736Y-66189387D01*
X72125461Y-66415908D01*
X72775460Y-66391856D01*
X73264264Y-66189387D01*
X73362927Y-65922532D01*
X72390000Y-64949605D01*
X71417073Y-65922532D01*
X64225069Y-65922532D01*
X65642140Y-64505461D01*
X70744092Y-64505461D01*
X70768144Y-65155460D01*
X70970613Y-65644264D01*
X71237468Y-65742927D01*
X72210395Y-64770000D01*
X72569605Y-64770000D01*
X73542532Y-65742927D01*
X73809387Y-65644264D01*
X74035908Y-65034539D01*
X74011856Y-64384540D01*
X73809387Y-63895736D01*
X73542532Y-63797073D01*
X72569605Y-64770000D01*
X72210395Y-64770000D01*
X71237468Y-63797073D01*
X70970613Y-63895736D01*
X70744092Y-64505461D01*
X65642140Y-64505461D01*
X66530133Y-63617468D01*
X71417073Y-63617468D01*
X72390000Y-64590395D01*
X73362927Y-63617468D01*
X73264264Y-63350613D01*
X72654539Y-63124092D01*
X72004540Y-63148144D01*
X71515736Y-63350613D01*
X71417073Y-63617468D01*
X66530133Y-63617468D01*
X78674056Y-51473546D01*
X78836755Y-51717043D01*
X78836755Y-51717043D01*
G37*
X78836755Y-51717043D02*
X76612330Y-53941469D01*
X76548871Y-53983871D01*
X76380896Y-54235264D01*
X76336800Y-54456949D01*
X76336800Y-54456953D01*
X76321912Y-54531800D01*
X76336800Y-54606647D01*
X76336801Y-72036648D01*
X76321912Y-72111500D01*
X76380897Y-72408037D01*
X76470368Y-72541939D01*
X76399375Y-72589375D01*
X76200000Y-72887761D01*
X76000625Y-72589375D01*
X75509418Y-72261161D01*
X75076256Y-72175000D01*
X74783744Y-72175000D01*
X74350582Y-72261161D01*
X73859375Y-72589375D01*
X73660000Y-72887761D01*
X73460625Y-72589375D01*
X72969418Y-72261161D01*
X72536256Y-72175000D01*
X72243744Y-72175000D01*
X71810582Y-72261161D01*
X71319375Y-72589375D01*
X71120000Y-72887761D01*
X70920625Y-72589375D01*
X70429418Y-72261161D01*
X69996256Y-72175000D01*
X69703744Y-72175000D01*
X69270582Y-72261161D01*
X68779375Y-72589375D01*
X68580000Y-72887761D01*
X68380625Y-72589375D01*
X67889418Y-72261161D01*
X67456256Y-72175000D01*
X67163744Y-72175000D01*
X66730582Y-72261161D01*
X66239375Y-72589375D01*
X66040000Y-72887761D01*
X65840625Y-72589375D01*
X65349418Y-72261161D01*
X64916256Y-72175000D01*
X64623744Y-72175000D01*
X64190582Y-72261161D01*
X63858472Y-72483070D01*
X62628700Y-71253299D01*
X62628700Y-68944778D01*
X70755000Y-68944778D01*
X70755000Y-69595222D01*
X71003914Y-70196153D01*
X71463847Y-70656086D01*
X72064778Y-70905000D01*
X72715222Y-70905000D01*
X73316153Y-70656086D01*
X73776086Y-70196153D01*
X74025000Y-69595222D01*
X74025000Y-68944778D01*
X73776086Y-68343847D01*
X73316153Y-67883914D01*
X72715222Y-67635000D01*
X72064778Y-67635000D01*
X71463847Y-67883914D01*
X71003914Y-68343847D01*
X70755000Y-68944778D01*
X62628700Y-68944778D01*
X62628700Y-67518901D01*
X64225069Y-65922532D01*
X71417073Y-65922532D01*
X71515736Y-66189387D01*
X72125461Y-66415908D01*
X72775460Y-66391856D01*
X73264264Y-66189387D01*
X73362927Y-65922532D01*
X72390000Y-64949605D01*
X71417073Y-65922532D01*
X64225069Y-65922532D01*
X65642140Y-64505461D01*
X70744092Y-64505461D01*
X70768144Y-65155460D01*
X70970613Y-65644264D01*
X71237468Y-65742927D01*
X72210395Y-64770000D01*
X72569605Y-64770000D01*
X73542532Y-65742927D01*
X73809387Y-65644264D01*
X74035908Y-65034539D01*
X74011856Y-64384540D01*
X73809387Y-63895736D01*
X73542532Y-63797073D01*
X72569605Y-64770000D01*
X72210395Y-64770000D01*
X71237468Y-63797073D01*
X70970613Y-63895736D01*
X70744092Y-64505461D01*
X65642140Y-64505461D01*
X66530133Y-63617468D01*
X71417073Y-63617468D01*
X72390000Y-64590395D01*
X73362927Y-63617468D01*
X73264264Y-63350613D01*
X72654539Y-63124092D01*
X72004540Y-63148144D01*
X71515736Y-63350613D01*
X71417073Y-63617468D01*
X66530133Y-63617468D01*
X78674056Y-51473546D01*
X78836755Y-51717043D01*
G36*
X86391598Y-49996599D02*
X86358355Y-50033076D01*
X86188524Y-50443110D01*
X86309845Y-50673000D01*
X87503000Y-50673000D01*
X87503000Y-50653000D01*
X87757000Y-50653000D01*
X87757000Y-50673000D01*
X87777000Y-50673000D01*
X87777000Y-50927000D01*
X87757000Y-50927000D01*
X87757000Y-50947000D01*
X87503000Y-50947000D01*
X87503000Y-50927000D01*
X86309845Y-50927000D01*
X86188524Y-51156890D01*
X86358355Y-51566924D01*
X86748642Y-51995183D01*
X86878478Y-52056157D01*
X86689099Y-52182696D01*
X84432502Y-49926100D01*
X86321099Y-49926100D01*
X86391598Y-49996599D01*
X86391598Y-49996599D01*
G37*
X86391598Y-49996599D02*
X86358355Y-50033076D01*
X86188524Y-50443110D01*
X86309845Y-50673000D01*
X87503000Y-50673000D01*
X87503000Y-50653000D01*
X87757000Y-50653000D01*
X87757000Y-50673000D01*
X87777000Y-50673000D01*
X87777000Y-50927000D01*
X87757000Y-50927000D01*
X87757000Y-50947000D01*
X87503000Y-50947000D01*
X87503000Y-50927000D01*
X86309845Y-50927000D01*
X86188524Y-51156890D01*
X86358355Y-51566924D01*
X86748642Y-51995183D01*
X86878478Y-52056157D01*
X86689099Y-52182696D01*
X84432502Y-49926100D01*
X86321099Y-49926100D01*
X86391598Y-49996599D01*
G04 #@! TD*
M02*
